<svg width="222" height="222" viewBox="0 0 222 222" fill="none" xmlns="http://www.w3.org/2000/svg">
<path d="M91 11.547C103.376 4.40169 118.624 4.40169 131 11.547L187.129 43.953C199.505 51.0983 207.129 64.3034 207.129 78.594V143.406C207.129 157.697 199.505 170.902 187.129 178.047L131 210.453C118.624 217.598 103.376 217.598 91 210.453L34.8712 178.047C22.4951 170.902 14.8712 157.697 14.8712 143.406V78.594C14.8712 64.3034 22.4951 51.0983 34.8712 43.953L91 11.547Z" fill="#008DFF"/>
<path d="M135.19 58.0127L67.5723 100.838C64.497 102.785 64.4672 107.261 67.5162 109.25L93.9351 126.479C94.8161 127.054 95.1015 128.213 94.5882 129.131L78.9036 157.182C76.3866 161.684 81.5064 166.586 85.8947 163.877L153.962 121.846C157.161 119.87 157.117 115.203 153.88 113.288L127.137 97.4685C126.22 96.9259 125.889 95.7596 126.385 94.8164L142.291 64.5637C144.674 60.0325 139.515 55.2736 135.19 58.0127Z" fill="white"/>
</svg>
