<svg width="98" height="27" viewBox="0 0 98 27" fill="none" xmlns="http://www.w3.org/2000/svg">
<path d="M92.4742 25.8207V8.03391H97.7712V25.8207H92.4742ZM92.2632 5.12201V0.175415H97.9472V5.12201H92.2632Z" fill="#E30034"/>
<path d="M82.8463 25.8207V8.03391H88.1433V25.8207H82.8463ZM82.6353 5.12201V0.175415H88.3193V5.12201H82.6353Z" fill="#3276B1"/>
<path d="M67.6622 26.2066C66.1182 26.2066 64.7502 25.8324 63.5572 25.084C62.3882 24.3356 61.4642 23.2714 60.7862 21.8915C60.1312 20.5116 59.8032 18.851 59.8032 16.9098C59.8032 14.9919 60.1312 13.343 60.7862 11.9631C61.4412 10.5832 62.3642 9.5307 63.5572 8.8057C64.7502 8.0573 66.1182 7.6831 67.6622 7.6831C69.0652 7.6831 70.3162 8.0222 71.4162 8.7005C72.5382 9.3553 73.2872 10.2441 73.6612 11.3667H73.2052V0H78.5022V25.8207H73.2752V22.3476H73.7312C73.3572 23.517 72.6092 24.4525 71.4862 25.1542C70.3632 25.8558 69.0892 26.2066 67.6622 26.2066ZM69.2412 22.2072C70.4572 22.2072 71.4392 21.7745 72.1882 20.9092C72.9362 20.0438 73.3102 18.7107 73.3102 16.9098C73.3102 15.1089 72.9362 13.7874 72.1882 12.9454C71.4392 12.1035 70.4572 11.6825 69.2412 11.6825C68.0242 11.6825 67.0302 12.1035 66.2592 12.9454C65.5102 13.7874 65.1362 15.1089 65.1362 16.9098C65.1362 18.7107 65.5102 20.0438 66.2592 20.9092C67.0302 21.7745 68.0242 22.2072 69.2412 22.2072Z" fill="#333333"/>
<path d="M45.4252 26.2066C43.8812 26.2066 42.5252 25.8324 41.3552 25.084C40.1862 24.3355 39.2742 23.2714 38.6192 21.8915C37.9642 20.5116 37.6362 18.851 37.6362 16.9097C37.6362 14.9919 37.9642 13.343 38.6192 11.9631C39.2742 10.5832 40.1862 9.53069 41.3552 8.80569C42.5252 8.05729 43.8812 7.68298 45.4252 7.68298C46.8512 7.68298 48.1262 8.03389 49.2492 8.73549C50.3952 9.41379 51.1432 10.3376 51.4942 11.507H51.1082L51.5292 8.03388H56.6162C56.5462 8.80568 56.4762 9.58918 56.4062 10.3844C56.3592 11.1562 56.3352 11.9163 56.3352 12.6648V25.8207H51.0732L51.0382 22.4879H51.4592C51.0852 23.6105 50.3362 24.511 49.2142 25.1892C48.0912 25.8675 46.8282 26.2066 45.4252 26.2066ZM47.0392 22.2072C48.2552 22.2072 49.2372 21.7745 49.9852 20.9092C50.7342 20.0438 51.1082 18.7106 51.1082 16.9097C51.1082 15.1088 50.7342 13.7874 49.9852 12.9454C49.2372 12.1034 48.2552 11.6825 47.0392 11.6825C45.8222 11.6825 44.8402 12.1034 44.0922 12.9454C43.3432 13.7874 42.9692 15.1088 42.9692 16.9097C42.9692 18.7106 43.3312 20.0438 44.0572 20.9092C44.8052 21.7745 45.7992 22.2072 47.0392 22.2072Z" fill="#333333"/>
<path d="M24.2274 25.8207V12.7349C24.2274 11.9631 24.2034 11.1796 24.1574 10.3844C24.1334 9.58918 24.0754 8.80568 23.9814 8.03388H29.0684L29.6654 13.2261H28.8584C29.0924 11.9631 29.4664 10.9223 29.9804 10.1037C30.5184 9.28508 31.1734 8.67708 31.9454 8.27948C32.7404 7.88178 33.6414 7.68298 34.6464 7.68298C35.0914 7.68298 35.4414 7.70638 35.6994 7.75318C35.9564 7.77658 36.2134 7.83509 36.4714 7.92859L36.4354 12.5946C35.9444 12.3841 35.5234 12.2555 35.1724 12.2087C34.8454 12.1385 34.4244 12.1034 33.9104 12.1034C32.9274 12.1034 32.1094 12.2906 31.4544 12.6648C30.8224 13.039 30.3434 13.5886 30.0154 14.3136C29.7114 15.0387 29.5594 15.9157 29.5594 16.9448V25.8207H24.2274Z" fill="#333333"/>
<path d="M9.80322 25.8207V12.7349C9.80322 11.9631 9.77982 11.1796 9.73302 10.3844C9.70972 9.58918 9.65122 8.80568 9.55762 8.03388H14.6446L15.241 13.2261H14.4341C14.668 11.9631 15.0422 10.9223 15.5567 10.1037C16.0947 9.28508 16.7495 8.67708 17.5214 8.27948C18.3163 7.88178 19.2173 7.68298 20.2223 7.68298C20.6673 7.68298 21.0183 7.70638 21.2753 7.75318C21.5323 7.77658 21.7893 7.83509 22.0473 7.92859L22.0123 12.5946C21.5203 12.3841 21.0993 12.2555 20.7493 12.2087C20.4213 12.1385 20.0003 12.1034 19.4863 12.1034C18.5033 12.1034 17.6851 12.2906 17.0302 12.6648C16.3987 13.039 15.9193 13.5886 15.5918 14.3136C15.2878 15.0387 15.1357 15.9157 15.1357 16.9448V25.8207H9.80322Z" fill="#333333"/>
<path d="M0.210495 25.8207V8.03391H5.508V25.8207H0.210495ZM0 5.12201V0.175415H5.6834V5.12201H0Z" fill="#43A943"/>
</svg>
