<svg width="20" height="20" viewBox="0 0 20 20" fill="none" xmlns="http://www.w3.org/2000/svg"><path d="M19.9999 4.99996V13.4174C20.0024 14.2932 19.8311 15.1607 19.496 15.9697C19.1608 16.7788 18.6685 17.5134 18.0474 18.1308L16.4224 19.7558C16.2662 19.9121 16.0543 19.9998 15.8333 19.9998C15.6123 19.9998 15.4004 19.9121 15.2441 19.7558C15.0879 19.5996 15.0001 19.3876 15.0001 19.1666C15.0001 18.9456 15.0879 18.7337 15.2441 18.5774L16.8691 16.9524C17.3348 16.4893 17.7039 15.9384 17.9553 15.3316C18.2066 14.7248 18.3351 14.0742 18.3333 13.4174V4.99996C18.3237 4.78539 18.2317 4.58279 18.0765 4.43436C17.9213 4.28591 17.7148 4.20307 17.4999 4.20307C17.2852 4.20307 17.0787 4.28591 16.9234 4.43436C16.7683 4.58279 16.6763 4.78539 16.6666 4.99996V11.6666C16.6374 12.2358 16.4791 12.8066 16.0824 13.2683L13.9341 15.5058C13.8585 15.585 13.7679 15.6484 13.6676 15.6925C13.5673 15.7366 13.4593 15.7604 13.3498 15.7626C13.2403 15.7648 13.1314 15.7452 13.0295 15.7052C12.9276 15.6651 12.8346 15.6052 12.7558 15.5291C12.6769 15.4532 12.6138 15.3626 12.57 15.2622C12.5262 15.162 12.5026 15.0541 12.5005 14.9446C12.4984 14.8352 12.5179 14.7264 12.5578 14.6246C12.5978 14.5227 12.6574 14.4296 12.7333 14.3508L14.8441 12.1558C15.0791 11.8624 15.0449 11.3958 14.7891 11.1108C14.4983 10.7716 13.9424 10.7391 13.6166 11.0458L10.9808 13.4716C11.4292 14.3119 11.665 15.2492 11.6674 16.2016V19.1683C11.6674 19.3893 11.5797 19.6013 11.4234 19.7576C11.2671 19.9138 11.0551 20.0016 10.8341 20.0016C10.6131 20.0016 10.4011 19.9138 10.2449 19.7576C10.0886 19.6013 10.0008 19.3893 10.0008 19.1683V16.2016C10 15.6255 9.88013 15.0558 9.64863 14.5282C9.41719 14.0006 9.07919 13.5266 8.65581 13.1358L6.37744 11.0383C6.05746 10.7416 5.4983 10.7733 5.21413 11.1099C5.08128 11.2591 5.00636 11.451 5.00299 11.6507C4.99963 11.8504 5.06804 12.0447 5.1958 12.1983L7.33831 14.4233C7.49156 14.5826 7.57531 14.7961 7.57106 15.0171C7.56688 15.2381 7.47506 15.4484 7.31581 15.6016C7.15656 15.7549 6.94294 15.8386 6.722 15.8344C6.501 15.8302 6.29075 15.7384 6.13746 15.5791L3.95746 13.3116C3.5358 12.8266 3.3858 12.2474 3.3358 11.6674V4.99996C3.3262 4.78539 3.23421 4.58279 3.07898 4.43436C2.92375 4.28591 2.71724 4.20307 2.50246 4.20307C2.28768 4.20307 2.08118 4.28591 1.92595 4.43436C1.77072 4.58279 1.67873 4.78539 1.66913 4.99996V13.4174C1.66913 14.7533 2.18913 16.0083 3.1333 16.9524L4.7583 18.5774C4.91456 18.7337 5.00234 18.9456 5.00234 19.1666C5.00234 19.3876 4.91456 19.5996 4.7583 19.7558C4.60204 19.9121 4.39011 19.9998 4.16913 19.9998C3.94815 19.9998 3.73622 19.9121 3.57996 19.7558L1.95496 18.1308C1.33405 17.5133 0.841775 16.7788 0.506629 15.9697C0.171483 15.1606 0.000122539 14.2932 0.0024651 13.4174V4.99996C0.0024651 3.62163 1.12413 2.49996 2.50246 2.49996C3.8808 2.49996 5.00246 3.62163 5.00246 4.99996V9.31994C5.22413 9.24162 5.45413 9.18331 5.6958 9.16994C6.02319 9.15119 6.35106 9.1975 6.66044 9.30619C6.96981 9.41494 7.25463 9.58387 7.49831 9.80331C7.60494 9.90412 9.97244 12.0674 9.99081 12.1174L12.4983 9.81081C12.7431 9.59 13.029 9.41969 13.3398 9.30969C13.6506 9.19975 13.9799 9.15225 14.3091 9.16994C14.5508 9.18331 14.7808 9.24162 15.0024 9.31994V4.99996C15.0024 3.62163 16.1241 2.49996 17.5024 2.49996C18.8808 2.49996 20.0024 3.62163 20.0024 4.99996H19.9999ZM6.77331 5.39662V2.66246C6.77331 2.24079 6.98331 1.84579 7.33244 1.60996L9.39663 0.217458C9.60644 0.0757313 9.85388 0 10.1071 0C10.3603 0 10.6076 0.0757313 10.8174 0.217458L12.8808 1.60996C13.2308 1.84579 13.4399 2.24079 13.4399 2.66246V5.39662C13.4399 6.09829 12.8716 6.66663 12.1699 6.66663H8.04331C7.7065 6.66663 7.38344 6.53281 7.14525 6.29462C6.90713 6.05648 6.77331 5.73345 6.77331 5.39662ZM8.95838 4.58329C8.95838 4.6938 9.00225 4.79978 9.08038 4.87792C9.15856 4.95606 9.2645 4.99996 9.375 4.99996H10.625C10.7355 4.99996 10.8415 4.95606 10.9196 4.87792C10.9978 4.79978 11.0416 4.6938 11.0416 4.58329V3.53121C11.0416 3.42071 10.9978 3.31473 10.9196 3.23659C10.8415 3.15845 10.7355 3.11455 10.625 3.11455H9.375C9.2645 3.11455 9.15856 3.15845 9.08038 3.23659C9.00225 3.31473 8.95838 3.42071 8.95838 3.53121V4.58329Z" fill="currentColor"/></svg>