<svg width="20" height="20" viewBox="0 0 20 20" fill="none" xmlns="http://www.w3.org/2000/svg"><path d="M2 12.2918V8.44812C2 7.63624 1.99912 6.96866 2.04136 6.42699C2.0845 5.8741 2.17725 5.36624 2.40901 4.88991C2.76885 4.15052 3.34368 3.54777 4.05239 3.16952C4.50973 2.92549 4.99718 2.82819 5.52666 2.78286C6.04504 2.73851 6.68372 2.73895 7.45864 2.73895H10.3529C10.8727 2.73895 11.294 3.17677 11.2941 3.71657C11.2941 4.2565 10.8727 4.69419 10.3529 4.69419H7.45864C6.65267 4.69419 6.10513 4.69525 5.68199 4.73143C5.26997 4.76668 5.05921 4.83082 4.91268 4.909C4.55932 5.09763 4.27063 5.39922 4.08916 5.77206C4.01318 5.9282 3.952 6.15144 3.9182 6.58452C3.88353 7.02893 3.88235 7.60412 3.88235 8.44812V12.2918C3.88235 13.1355 3.88355 13.7101 3.9182 14.1544C3.95199 14.5875 4.01321 14.8107 4.08916 14.9669C4.27065 15.3399 4.55916 15.6422 4.91268 15.8309C5.05921 15.9091 5.26997 15.9732 5.68199 16.0085C6.10513 16.0446 6.65269 16.0447 7.45864 16.0447H12.5414C13.3473 16.0447 13.8949 16.0446 14.318 16.0085C14.73 15.9732 14.9408 15.9091 15.0873 15.8309C15.4408 15.6422 15.7293 15.3399 15.9108 14.9669C15.9868 14.8107 16.048 14.5875 16.0818 14.1544C16.1164 13.7101 16.1176 13.1355 16.1176 12.2918V10.0005C16.1176 9.46055 16.539 9.02285 17.0588 9.02285C17.5786 9.02285 18 9.46055 18 10.0005V12.2918C18 13.1037 18.0009 13.7712 17.9586 14.3129C17.9155 14.8657 17.8227 15.3728 17.591 15.849C17.2311 16.5886 16.6565 17.1921 15.9476 17.5704C15.4903 17.8144 15.0028 17.9117 14.4733 17.957C13.955 18.0014 13.3163 18 12.5414 18H7.45864C6.68372 18 6.04504 18.0014 5.52666 17.957C4.99716 17.9117 4.50974 17.8144 4.05239 17.5704C3.34348 17.1921 2.76887 16.5886 2.40901 15.849C2.17729 15.3728 2.0845 14.8657 2.04136 14.3129C1.9991 13.7712 2 13.1037 2 12.2918ZM11.8824 10.3699C11.8824 9.26933 11.0324 8.39083 10 8.39083C8.96761 8.39083 8.11765 9.26933 8.11765 10.3699C8.11775 11.4705 8.96768 12.3491 10 12.3491C11.0323 12.3491 11.8822 11.4705 11.8824 10.3699ZM14 7.41321V6.17304H12.8235C12.3038 6.17304 11.8824 5.73527 11.8824 5.19542C11.8824 4.65549 12.3037 4.21779 12.8235 4.21779H14V2.97762C14 2.4377 14.4214 2 14.9412 2C15.461 2 15.8824 2.4377 15.8824 2.97762V4.21779H17.0588C17.5786 4.21779 18 4.65549 18 5.19542C17.9999 5.73527 17.5786 6.17304 17.0588 6.17304H15.8824V7.41321C15.8822 7.95299 15.4609 8.39083 14.9412 8.39083C14.4215 8.39083 14.0002 7.95299 14 7.41321ZM13.7647 10.3699C13.7646 12.5353 12.0863 14.3043 10 14.3043C7.91367 14.3043 6.2354 12.5353 6.23529 10.3699C6.23529 8.20452 7.9136 6.43559 10 6.43559C12.0864 6.43559 13.7647 8.20452 13.7647 10.3699Z" fill="currentColor"/></svg>