<svg width="20" height="20" viewBox="0 0 20 20" fill="none" xmlns="http://www.w3.org/2000/svg"><path d="M15.9808 9.31505C15.953 9.19237 15.8955 9.07822 15.8131 8.98247C15.7307 8.88673 15.626 8.81227 15.508 8.76555L12.1702 7.44531L12.8608 2.89124C12.8862 2.72771 12.8579 2.56045 12.7801 2.41399C12.7023 2.26753 12.5791 2.14958 12.4285 2.07744C12.278 2.00531 12.108 1.98278 11.9436 2.01317C11.7791 2.04355 11.6288 2.12525 11.5148 2.24628L4.2106 9.98581C4.12378 10.0778 4.06093 10.1893 4.0275 10.3107C3.99407 10.432 3.99107 10.5597 4.01876 10.6825C4.04644 10.8053 4.10398 10.9195 4.18639 11.0154C4.26879 11.1112 4.37358 11.1858 4.49168 11.2325L7.82943 12.5528L7.13879 17.1088C7.11344 17.2723 7.14174 17.4396 7.21955 17.586C7.29736 17.7325 7.42057 17.8504 7.57112 17.9226C7.72167 17.9947 7.89164 18.0172 8.05608 17.9868C8.22052 17.9564 8.37079 17.8747 8.48485 17.7537L15.789 10.0142C15.8762 9.92196 15.9393 9.81004 15.9727 9.68817C16.0061 9.56631 16.0089 9.43821 15.9808 9.31505ZM9.06071 14.8727L9.46961 12.1787C9.49574 12.0063 9.46224 11.8302 9.37453 11.6789C9.28682 11.5277 9.15004 11.4102 8.98636 11.3454L6.13512 10.2174L10.9389 5.12732L10.53 7.82132C10.5039 7.99375 10.5374 8.16984 10.6251 8.32109C10.7128 8.47233 10.8496 8.58985 11.0133 8.65461L13.8645 9.78265L9.06071 14.8727Z" fill="currentColor"/></svg>