<svg width="20" height="20" viewBox="0 0 20 20" fill="none" xmlns="http://www.w3.org/2000/svg"><path d="M15.374 10.626C15.4711 10.7178 15.5489 10.8282 15.6026 10.9506C15.6564 11.073 15.685 11.2049 15.6869 11.3385C15.6888 11.4722 15.6639 11.6049 15.6136 11.7287C15.5634 11.8525 15.4887 11.9651 15.3943 12.0596C15.2998 12.1541 15.1873 12.2287 15.0635 12.2791C14.9396 12.3294 14.807 12.3544 14.6733 12.3526C14.5397 12.3507 14.4077 12.3221 14.2853 12.2684C14.1629 12.2148 14.0525 12.1371 13.9607 12.04C13.7817 11.8509 13.6835 11.5994 13.6871 11.339C13.6907 11.0786 13.7956 10.8299 13.9797 10.6457C14.1638 10.4615 14.4125 10.3564 14.6729 10.3527C14.9332 10.3491 15.1848 10.4471 15.374 10.626ZM16.926 14.2587C16.5433 14.6399 16.0812 14.9323 15.5728 15.1149C15.0643 15.2975 14.5219 15.366 13.984 15.3153L11.8954 17.404C11.5196 17.778 11.0115 17.9886 10.4813 17.99H9.33867C8.98672 17.989 8.64939 17.849 8.40005 17.6005C8.15077 17.3521 8.0096 17.0153 8.00736 16.6634L8.00133 15.338C8 15.0707 8.10336 14.8187 8.29269 14.6287C8.48203 14.4387 8.73333 14.334 9.00133 14.334H9.328L9.33067 13.9926C9.33349 13.7291 9.44 13.4772 9.62715 13.2915C9.81429 13.1058 10.067 13.0013 10.3307 13.0006H10.8387V12.7387C10.6054 11.9927 10.6181 11.1916 10.8747 10.4534C11.1314 9.71525 11.6184 9.07904 12.264 8.63867C13.4674 7.80464 15.0933 7.78133 16.3114 8.57664C16.7743 8.87515 17.1645 9.2736 17.4532 9.74267C17.742 10.2117 17.922 10.7396 17.98 11.2873C18.0377 11.8301 17.9729 12.3789 17.7905 12.8933C17.6081 13.4078 17.3127 13.8748 16.926 14.26V14.2587ZM16.654 11.4234C16.5807 10.71 16.1994 10.0947 15.5827 9.692C14.8133 9.18933 13.7853 9.20667 13.0234 9.73333C12.6012 10.0213 12.2857 10.4403 12.1254 10.9255C11.9652 11.4108 11.9691 11.9353 12.1367 12.418C12.1605 12.487 12.1727 12.5596 12.1727 12.6327V13.666C12.1727 13.8428 12.1025 14.0124 11.9774 14.1374C11.8524 14.2625 11.6828 14.3327 11.506 14.3327H10.6627L10.658 15.0047C10.6566 15.1805 10.5858 15.3487 10.4609 15.4726C10.336 15.5965 10.1672 15.666 9.99136 15.666H9.33803L9.34203 16.656H10.4827C10.658 16.656 10.8293 16.5853 10.954 16.4607L13.2787 14.136C13.3558 14.0582 13.4511 14.0009 13.556 13.9691C13.6609 13.9373 13.772 13.9322 13.8794 13.954C14.2556 14.0293 14.6445 14.0104 15.0117 13.8991C15.3789 13.7878 15.7129 13.5875 15.984 13.316C16.23 13.0706 16.418 12.7733 16.534 12.4458C16.6501 12.1182 16.6906 11.7689 16.654 11.4234ZM3.33333 6C3.33333 3.794 5.12733 2 7.33333 2C9.53936 2 11.3333 3.794 11.3333 6C11.3333 8.20597 9.53936 10 7.33333 10C5.12733 10 3.33333 8.20597 3.33333 6ZM4.66667 6C4.66667 7.47067 5.86267 8.66667 7.33333 8.66667C8.804 8.66667 10 7.47067 10 6C10 4.52933 8.804 3.33333 7.33333 3.33333C5.86267 3.33333 4.66667 4.52933 4.66667 6ZM8.66 12.142C8.67243 12.0553 8.66768 11.967 8.64603 11.8822C8.62432 11.7974 8.58613 11.7177 8.53365 11.6476C8.48117 11.5775 8.41536 11.5185 8.34005 11.4738C8.26475 11.4291 8.18133 11.3997 8.09467 11.3873C7.84251 11.3513 7.58805 11.3333 7.33333 11.3333C4.39267 11.3333 2 13.726 2 16.6667V17.3333C2 17.5101 2.07024 17.6797 2.19526 17.8047C2.32029 17.9298 2.48986 18 2.66667 18C2.84348 18 3.01305 17.9298 3.13807 17.8047C3.26309 17.6797 3.33333 17.5101 3.33333 17.3333V16.6667C3.33403 16.0933 3.45787 15.5267 3.69648 15.0053C3.93509 14.4839 4.28291 14.0198 4.7164 13.6445C5.14989 13.2692 5.65894 12.9913 6.20911 12.8298C6.75927 12.6682 7.33771 12.6267 7.90533 12.708C8.08032 12.7321 8.25771 12.6861 8.39899 12.5801C8.54027 12.4741 8.63408 12.3167 8.66 12.142Z" fill="currentColor"/></svg>