<svg width="20" height="20" viewBox="0 0 20 20" fill="none" xmlns="http://www.w3.org/2000/svg"><path fill-rule="evenodd" clip-rule="evenodd" d="M7.50662 2C7.67654 2 8.91934 2.21026 8.94531 3.62501C8.94673 3.7023 8.94554 3.77963 8.94554 3.88742C9.10531 3.88742 9.25568 3.87392 9.40291 3.88968C10.2452 3.97963 10.8328 4.53207 10.9861 5.37259C11.0328 5.62836 11.0757 5.88502 11.1141 6.14216C11.16 6.44839 10.9593 6.69049 10.6474 6.69115C9.17724 6.69447 7.70703 6.69451 6.23692 6.69097C5.91937 6.69022 5.71874 6.43768 5.77099 6.12653C5.8158 5.85979 5.85737 5.59246 5.90741 5.32669C6.0651 4.48962 6.73729 3.91309 7.59083 3.88136C7.72476 3.87635 7.85905 3.88065 7.98997 3.88065C8.07457 3.30368 7.76394 2.93804 7.20592 2.93756C6.66895 2.93707 6.13197 2.9353 5.595 2.93822C5.16417 2.94052 4.85132 3.24609 4.85079 3.67539C4.84818 5.79985 4.84951 7.92436 4.84977 10.0488C4.84977 10.0789 4.85296 10.109 4.85518 10.1474C6.63367 10.1474 8.40338 10.1474 10.1716 10.1474C10.2747 9.78115 10.4015 9.68748 10.7883 9.68748C11.8518 9.68748 12.9153 9.68748 13.9788 9.68748C14.3939 9.68748 14.5 9.76313 14.6265 10.1564C15.2801 10.1564 15.9367 10.1527 16.5931 10.1574C17.268 10.1622 17.9973 10.6481 17.9995 11.3179C18.0002 11.5245 18 11.4953 17.9998 11.6204C17.9999 11.9149 17.7781 12.4064 17.4793 12.6619C17.4375 12.6976 17.4117 12.7655 17.4014 12.8226C17.3015 13.3753 17.2054 13.9288 17.1103 14.4823C16.9612 15.3517 16.5552 16.0736 15.836 16.5906C15.5325 16.8087 15.1823 16.962 14.8579 17.1421C14.8972 17.2048 14.9723 17.2895 15.008 17.3884C15.0986 17.64 14.9772 17.8486 14.6715 18C14.5985 18 14.5256 18 14.4526 18C14.3386 17.9128 14.2186 17.8323 14.1122 17.7366C13.9771 17.6149 13.8477 17.4856 13.7261 17.3504C13.6455 17.2608 13.5565 17.2341 13.4388 17.2342C11.1528 17.2371 8.86669 17.2373 6.58066 17.2337C6.45462 17.2335 6.3709 17.2764 6.2819 17.3608C6.05007 17.5807 5.80601 17.7878 5.56686 18C5.49386 18 5.42087 18 5.34783 18C5.16896 17.9223 5.02763 17.8147 4.99151 17.6044C4.95601 17.3977 5.06836 17.253 5.19843 17.1097C5.15221 17.0915 5.12353 17.0794 5.09424 17.069C3.95142 16.6615 3.22702 15.8692 2.95574 14.69C2.81738 14.0886 2.73747 13.4739 2.62193 12.8671C2.60522 12.7793 2.54477 12.6957 2.49084 12.62C2.38584 12.473 2 12.1296 2 11.6563C2 11.6042 2 11.5521 2 11.5001C2 10.7057 2.69887 10.1577 3.5022 10.1564C3.63547 10.1561 3.76874 10.1563 3.91082 10.1563C3.91082 10.0783 3.91082 10.0216 3.91082 9.96498C3.91082 9.1793 3.91082 8.39363 3.91082 7.60795C3.91082 6.30714 3.9083 5.00638 3.91189 3.70562C3.91375 3.04889 4.2492 2.49804 4.76938 2.21531C4.94785 2.11832 5.26859 2 5.48075 2C6.20036 2 6.78701 2 7.50662 2ZM10.1886 12.9821C7.97867 12.9821 5.79271 12.9821 3.59873 12.9821C3.68187 13.4508 3.76484 13.906 3.84302 14.362C4.03598 15.4877 4.95388 16.2918 6.0982 16.2959C8.70528 16.3053 11.3125 16.3038 13.9196 16.2964C14.9115 16.2936 15.799 15.672 16.0681 14.7537C16.2367 14.1787 16.3147 13.5772 16.4347 12.9807C15.8108 12.9807 15.2141 12.9807 14.6074 12.9807C14.6074 13.3812 14.6077 13.7711 14.6073 14.161C14.607 14.5503 14.4344 14.7242 14.0465 14.7244C12.9567 14.7248 11.8669 14.7247 10.7771 14.7245C10.3457 14.7244 10.1889 14.5657 10.1887 14.1289C10.1884 13.7497 10.1886 13.3705 10.1886 12.9821ZM13.6573 13.7809C13.6573 12.7198 13.6573 11.6768 13.6573 10.6358C12.8095 10.6358 11.9731 10.6358 11.1392 10.6358C11.1392 11.6898 11.1392 12.7329 11.1392 13.7809C11.9836 13.7809 12.8158 13.7809 13.6573 13.7809ZM10.181 11.0938C10.1175 11.0938 10.071 11.0938 10.0244 11.0938C7.84642 11.0938 5.66848 11.0938 3.49055 11.0939C3.45407 11.0939 3.41742 11.0926 3.38121 11.0959C3.17216 11.115 3.00126 11.2714 2.96239 11.4775C2.90469 11.7837 3.13107 12.0318 3.47388 12.0319C5.66746 12.0327 7.86104 12.0324 10.0545 12.0319C10.0945 12.0319 10.1344 12.0259 10.181 12.0221C10.181 11.7131 10.181 11.4136 10.181 11.0938ZM6.74562 5.74222C7.89393 5.74222 8.9926 5.74222 10.098 5.74222C10.0817 5.64638 10.0711 5.56396 10.0532 5.48313C9.96328 5.0769 9.6597 4.82245 9.24336 4.81816C8.70692 4.81258 8.17039 4.81382 7.63395 4.8182C7.36941 4.82033 7.1304 4.91524 6.99061 5.14082C6.88217 5.31571 6.83089 5.52593 6.74562 5.74222ZM14.6193 11.0951C14.6193 11.4181 14.6193 11.7218 14.6193 12.0314C15.2931 12.0314 15.9548 12.0358 16.6164 12.0291C16.8712 12.0265 17.0687 11.8088 17.0675 11.5612C17.0662 11.3191 16.8735 11.1006 16.6284 11.0978C15.9619 11.0901 15.2954 11.0951 14.6193 11.0951Z" fill="currentColor"/></svg>