<svg width="20" height="20" viewBox="0 0 20 20" fill="none" xmlns="http://www.w3.org/2000/svg"><path d="M16.8406 12.3137C16.8406 11.8508 16.714 11.5782 16.5562 11.4213C16.3998 11.2659 16.1311 11.1428 15.6748 11.1427H4.32609C3.86952 11.1427 3.60031 11.2659 3.44384 11.4213C3.28601 11.5782 3.15943 11.8508 3.15942 12.3137V14.5283C3.15942 14.6557 3.19081 14.7136 3.20743 14.7379C3.22647 14.7657 3.25548 14.7919 3.30254 14.8148C3.35193 14.839 3.40847 14.8537 3.45743 14.8617C3.47944 14.8653 3.49705 14.8663 3.50725 14.867C3.51745 14.8663 3.53505 14.8653 3.55707 14.8617C3.60602 14.8537 3.66257 14.839 3.71196 14.8148C3.75901 14.7919 3.78802 14.7657 3.80707 14.7379C3.82369 14.7136 3.85507 14.6557 3.85507 14.5283V13.6226C3.85507 13.4719 3.91682 13.3273 4.02627 13.2211C4.1357 13.115 4.28416 13.0557 4.43841 13.0566C7.72741 13.0752 12.2726 13.0752 15.5616 13.0566C15.7158 13.0557 15.8643 13.115 15.9737 13.2211C16.0832 13.3273 16.1449 13.4719 16.1449 13.6226V14.5283C16.1449 14.6738 16.1756 14.7418 16.1911 14.768C16.2058 14.7928 16.2241 14.8085 16.2509 14.8228C16.3257 14.8624 16.4269 14.8679 16.4928 14.8679C16.5586 14.8679 16.6598 14.8624 16.7346 14.8228C16.7615 14.8085 16.7797 14.7928 16.7944 14.768C16.8099 14.7418 16.8406 14.6738 16.8406 14.5283V12.3137ZM8.21196 6.55601C8.59225 6.55604 8.97492 6.6598 9.26087 6.94074C9.45698 7.13345 9.56637 7.37121 9.61685 7.62264H10.3822C10.4333 7.36955 10.5456 7.12939 10.7482 6.93543C11.0407 6.65541 11.4312 6.55604 11.8188 6.55601H13.2754C13.663 6.55607 14.0535 6.65543 14.346 6.93543C14.5485 7.12934 14.66 7.36966 14.7111 7.62264H15.4393V7.12824C15.4393 5.76669 14.5538 5.13207 13.7101 5.13207H6.28986C5.44617 5.13207 4.56069 5.76669 4.56069 7.12824V7.62264H5.34783C5.3983 7.37112 5.50851 7.1335 5.70471 6.94074C5.9907 6.65976 6.37328 6.55601 6.75362 6.55601H8.21196ZM18 14.5283C18 14.8355 17.9329 15.1072 17.7971 15.3358C17.6606 15.5656 17.4739 15.7198 17.2871 15.8187C16.9345 16.0053 16.5718 16 16.4928 16C16.4137 16 16.051 16.0053 15.6984 15.8187C15.5116 15.7198 15.3249 15.5656 15.1884 15.3358C15.0526 15.1072 14.9855 14.8355 14.9855 14.5283V14.1904C11.9516 14.205 8.04844 14.205 5.01449 14.1904V14.5283C5.01449 14.8537 4.92985 15.1355 4.77264 15.3658C4.61777 15.5927 4.41479 15.7365 4.23007 15.8266C4.04763 15.9157 3.87221 15.9575 3.74728 15.9779C3.68371 15.9882 3.62947 15.9936 3.58877 15.9964C3.56837 15.9979 3.55074 15.9987 3.53714 15.9991C3.53031 15.9993 3.52399 15.9999 3.51902 16H3.50815C3.50786 16 3.50725 16 3.50725 15.4339L3.50634 16H3.49547C3.4905 15.9999 3.48418 15.9993 3.47736 15.9991C3.46375 15.9987 3.44612 15.9979 3.42572 15.9964C3.38502 15.9936 3.33078 15.9882 3.26721 15.9779C3.14229 15.9575 2.96686 15.9157 2.78442 15.8266C2.59971 15.7365 2.39672 15.5927 2.24185 15.3658C2.08464 15.1355 2 14.8537 2 14.5283V12.3137C2.00001 11.6541 2.18401 11.0579 2.61775 10.6271C3.05298 10.195 3.65781 10.0106 4.32609 10.0106H15.6748C16.3429 10.0107 16.9471 10.1951 17.3822 10.6271C17.816 11.0579 18 11.6541 18 12.3137V14.5283ZM16.5987 8.18867C16.5987 8.50115 16.339 8.75449 16.019 8.75471H14.1667C13.8465 8.75471 13.587 8.50129 13.587 8.18867V7.97199C13.587 7.79531 13.5388 7.74884 13.5335 7.7438C13.5257 7.73639 13.4699 7.68815 13.2754 7.68808H11.8188C11.6226 7.68811 11.5669 7.73697 11.5598 7.7438C11.5539 7.74949 11.5072 7.79681 11.5072 7.97199V8.18867C11.5072 8.50129 11.2477 8.75471 10.9275 8.75471H9.07246C8.7523 8.75471 8.49275 8.50129 8.49275 8.18867V7.97199C8.49275 7.79522 8.44494 7.74491 8.43841 7.7385C8.43206 7.73228 8.38405 7.68811 8.21196 7.68808H6.75362C6.58216 7.68808 6.53387 7.73197 6.52717 7.7385C6.52064 7.74491 6.47283 7.79522 6.47283 7.97199V8.18867C6.47283 8.50123 6.2132 8.75462 5.89312 8.75471H3.98098C3.66101 8.75449 3.40127 8.50115 3.40127 8.18867V7.12824C3.40127 5.17729 4.76975 4 6.28986 4H13.7101C15.2303 4 16.5987 5.1773 16.5987 7.12824V8.18867Z" fill="currentColor"/></svg>