<svg width="20" height="20" viewBox="0 0 20 20" fill="none" xmlns="http://www.w3.org/2000/svg"><path fill-rule="evenodd" clip-rule="evenodd" d="M10.0012 1.66748C10.3463 1.66748 10.6262 1.9473 10.6262 2.29248V2.94834C13.7845 3.26191 16.2512 5.92664 16.2512 9.1675V11.7625L16.828 13.3007C17.2877 14.5266 16.3816 15.8342 15.0724 15.8342H12.5522C12.5238 17.2192 11.3916 18.3329 9.99967 18.3329C8.60775 18.3329 7.47558 17.2192 7.44718 15.8342H4.92992C3.62078 15.8342 2.71463 14.5266 3.1743 13.3007L3.75117 11.7625V9.1675C3.75117 5.92664 6.21784 3.26191 9.37617 2.94834V2.29248C9.37617 1.9473 9.656 1.66748 10.0012 1.66748ZM8.69775 15.8342C8.72567 16.5282 9.29758 17.0829 9.99967 17.0829C10.7018 17.0829 11.2737 16.5282 11.3017 15.8342H8.69775ZM5.00117 9.1675C5.00117 6.40606 7.23974 4.16748 10.0012 4.16748C12.7626 4.16748 15.0012 6.40606 15.0012 9.1675V11.764C15.0012 11.9129 15.0279 12.0606 15.0803 12.2L15.6576 13.7397C15.8108 14.1482 15.5088 14.5842 15.0724 14.5842H4.92992C4.49353 14.5842 4.19148 14.1482 4.34471 13.7397L4.92211 12.2C4.97438 12.0606 5.00117 11.9129 5.00117 11.764V9.1675Z" fill="currentColor"/></svg>