<svg width="20" height="20" viewBox="0 0 24 24" fill="none" xmlns="http://www.w3.org/2000/svg" transform="rotate(0 0 0)"><path d="M18.6571 5.89083C18.95 6.18373 18.95 6.6586 18.6571 6.9515L16.7494 8.85916C16.6087 8.99982 16.418 9.07883 16.2191 9.07883C16.0201 9.07883 15.8294 8.99982 15.6887 8.85917L14.5964 7.76683C14.3035 7.47394 14.3035 6.99907 14.5964 6.70617C14.8893 6.41328 15.3642 6.41328 15.6571 6.70617L16.2191 7.26817L17.5964 5.89083C17.8893 5.59794 18.3642 5.59794 18.6571 5.89083Z" fill="currentColor"></path><path fill-rule="evenodd" clip-rule="evenodd" d="M11.2517 7.375C11.2517 4.40647 13.6582 2 16.6267 2C19.5952 2 22.0017 4.40647 22.0017 7.375C22.0017 10.3435 19.5952 12.75 16.6267 12.75C13.6582 12.75 11.2517 10.3435 11.2517 7.375ZM16.6267 3.5C14.4866 3.5 12.7517 5.2349 12.7517 7.375C12.7517 9.5151 14.4866 11.25 16.6267 11.25C18.7668 11.25 20.5017 9.5151 20.5017 7.375C20.5017 5.2349 18.7668 3.5 16.6267 3.5Z" fill="currentColor"></path><path fill-rule="evenodd" clip-rule="evenodd" d="M4.5016 11.0007C4.5016 7.23584 7.27568 4.11887 10.8913 3.58234C10.5387 4.11448 10.2582 4.69854 10.0637 5.32059C7.70092 6.12648 6.0016 8.36516 6.0016 11.0007V14.1166C6.0016 14.2952 5.96946 14.4724 5.90673 14.6397L5.21385 16.4874C5.02998 16.9777 5.39244 17.5007 5.9161 17.5007H18.0871C18.6108 17.5007 18.9732 16.9777 18.7893 16.4874L18.0965 14.6397C18.0337 14.4724 18.0016 14.2952 18.0016 14.1166V14.1124C18.5257 14.006 19.0282 13.84 19.5016 13.6218V14.1147L20.1938 15.9607C20.7454 17.4316 19.6581 19.0007 18.0871 19.0007H15.0628C15.0287 20.6629 13.6701 21.9993 11.9998 21.9993C10.3295 21.9993 8.97089 20.6629 8.93682 19.0007H5.9161C4.34514 19.0007 3.25776 17.4316 3.80936 15.9607L4.5016 14.1147V11.0007ZM10.4375 19.0007C10.471 19.8337 11.1573 20.4993 11.9998 20.4993C12.8423 20.4993 13.5286 19.8337 13.5622 19.0007H10.4375Z" fill="currentColor"></path></svg>