<svg width="20" height="20" viewBox="0 0 20 20" fill="none" xmlns="http://www.w3.org/2000/svg"><path d="M2.21967 6.21967C2.51256 5.92678 2.98732 5.92678 3.28022 6.21967L6.68842 9.62787C6.81479 9.75424 6.89287 9.82753 6.95014 9.87885C7.00741 9.82751 7.08555 9.75418 7.21186 9.62787L9.12787 7.71186C9.25773 7.582 9.38677 7.45173 9.50483 7.35151C9.62953 7.24568 9.79052 7.12917 10.0019 7.06049L10.1122 7.03022C10.3344 6.97699 10.5659 6.97693 10.788 7.03022L10.8984 7.06049L11.0478 7.12006C11.1881 7.18669 11.3019 7.27213 11.3955 7.35151C11.5135 7.45173 11.6425 7.582 11.7724 7.71186L15.9999 11.9394V8.84955C16.0002 8.43552 16.3359 8.09955 16.7499 8.09955C17.164 8.09955 17.4997 8.43552 17.4999 8.84955V13.7499C17.4999 14.1642 17.1642 14.4999 16.7499 14.4999H11.8496C11.4355 14.4997 11.0996 14.164 11.0996 13.7499C11.0996 13.3359 11.4355 13.0002 11.8496 12.9999H14.9394L10.7119 8.7724C10.585 8.64553 10.5075 8.57083 10.4501 8.51947C10.3928 8.57083 10.3155 8.64537 10.1884 8.7724L8.2724 10.6884C8.14261 10.8182 8.01347 10.9476 7.89545 11.0478C7.77077 11.1536 7.60977 11.27 7.39838 11.3388C7.10716 11.4334 6.79312 11.4334 6.5019 11.3388C6.29038 11.2701 6.12957 11.1537 6.00483 11.0478C5.88682 10.9476 5.75767 10.8182 5.62787 10.6884L2.21967 7.28022C1.92678 6.98732 1.92678 6.51256 2.21967 6.21967Z" fill="currentColor"/></svg>