<svg width="20" height="20" viewBox="0 0 24 24" fill="none" xmlns="http://www.w3.org/2000/svg" transform="rotate(0 0 0)"><path fill-rule="evenodd" clip-rule="evenodd" d="M2.5 10.5C2.5 6.77207 5.52208 3.75 9.25 3.75H13.9758C18.1313 3.75 21.5 7.11869 21.5 11.2742C21.5 15.4297 18.1313 18.7984 13.9758 18.7984H7.635L3.75032 22.277C3.52993 22.4743 3.21411 22.5237 2.94401 22.403C2.67391 22.2823 2.5 22.0141 2.5 21.7182V10.5ZM9.25 5.25C6.3505 5.25 4 7.6005 4 10.5V20.0399L6.84795 17.4897C6.9855 17.3665 7.16364 17.2984 7.34827 17.2984H13.9758C17.3029 17.2984 20 14.6013 20 11.2742C20 7.94712 17.3029 5.25 13.9758 5.25H9.25Z" fill="currentColor"></path></svg>