<svg width="20" height="20" viewBox="0 0 20 20" fill="none" xmlns="http://www.w3.org/2000/svg"><path d="M10 18C5.58867 18 2 14.4113 2 10C2 5.58867 5.58867 2 10 2C14.4113 2 18 5.58867 18 10C18 14.4113 14.4113 18 10 18ZM10 3.33333C6.324 3.33333 3.33333 6.324 3.33333 10C3.33333 13.676 6.324 16.6667 10 16.6667C13.676 16.6667 16.6667 13.676 16.6667 10C16.6667 6.324 13.676 3.33333 10 3.33333ZM13.3333 10C13.3333 9.82319 13.2631 9.65362 13.1381 9.5286C13.013 9.40357 12.8435 9.33333 12.6667 9.33333H10.6667V6C10.6667 5.82319 10.5964 5.65362 10.4714 5.5286C10.3464 5.40357 10.1768 5.33333 10 5.33333C9.82319 5.33333 9.65362 5.40357 9.5286 5.5286C9.40357 5.65362 9.33333 5.82319 9.33333 6V10C9.33333 10.1768 9.40357 10.3464 9.5286 10.4714C9.65362 10.5964 9.82319 10.6667 10 10.6667H12.6667C12.8435 10.6667 13.013 10.5964 13.1381 10.4714C13.2631 10.3464 13.3333 10.1768 13.3333 10Z" fill="currentColor"/></svg>