<svg width="20" height="20" viewBox="0 0 20 20" fill="none" xmlns="http://www.w3.org/2000/svg"><path d="M10 4.16667C10.221 4.16667 10.433 4.25447 10.5893 4.41075C10.7456 4.56702 10.8333 4.77899 10.8333 5V9.89669C10.8334 10.0396 10.7967 10.1801 10.7268 10.3047C10.6569 10.4293 10.5561 10.5339 10.4342 10.6083L6.76081 12.855C6.66744 12.9122 6.56363 12.9503 6.45544 12.9673C6.34725 12.9843 6.23677 12.9798 6.13033 12.954C6.02389 12.9282 5.92358 12.8817 5.83515 12.8171C5.74672 12.7525 5.67191 12.6711 5.615 12.5775C5.55791 12.4841 5.51978 12.3804 5.50278 12.2722C5.48578 12.1641 5.49026 12.0537 5.51595 11.9472C5.54164 11.8409 5.58805 11.7406 5.65252 11.6521C5.71698 11.5636 5.79824 11.4887 5.89167 11.4317L9.16669 9.42919V5C9.16669 4.77899 9.25444 4.56702 9.41075 4.41075C9.567 4.25447 9.779 4.16667 10 4.16667ZM18.3333 10.8333H15C14.779 10.8333 14.567 10.9211 14.4107 11.0774C14.2544 11.2337 14.1667 11.4456 14.1667 11.6667C14.1667 11.8877 14.2544 12.0996 14.4107 12.2559C14.567 12.4122 14.779 12.5 15 12.5H17.14L13.5325 16.1067C13.4504 16.1844 13.3418 16.2277 13.2288 16.2277C13.1158 16.2277 13.0071 16.1844 12.925 16.1067L12.005 15.1867C11.2125 14.3925 9.83169 14.3925 9.03669 15.1867L5.65917 18.5783C5.51073 18.7366 5.42976 18.9464 5.43344 19.1632C5.43712 19.3802 5.52516 19.5871 5.67889 19.7402C5.83262 19.8933 6.03994 19.9804 6.25687 19.9832C6.47381 19.986 6.68325 19.9041 6.84081 19.755L10.2175 16.3633C10.2996 16.2856 10.4082 16.2423 10.5212 16.2423C10.6342 16.2423 10.7429 16.2856 10.825 16.3633L11.745 17.2833C12.5375 18.0775 13.92 18.0767 14.7117 17.2833L18.3333 13.6625V15.8325C18.3333 16.0535 18.4211 16.2655 18.5774 16.4217C18.7337 16.5781 18.9456 16.6658 19.1667 16.6658C19.3877 16.6658 19.5996 16.5781 19.7559 16.4217C19.9122 16.2655 20 16.0535 20 15.8325V12.4992C20 11.58 19.2525 10.8325 18.3333 10.8325V10.8333ZM1.66667 10C1.66667 5.405 5.405 1.66667 10 1.66667C11.9478 1.66501 13.8345 2.34625 15.332 3.59186C16.8294 4.83747 17.8428 6.56862 18.1958 8.48419C18.215 8.59212 18.2554 8.69512 18.3146 8.78737C18.3739 8.87956 18.4509 8.95912 18.5411 9.02137C18.6313 9.08356 18.733 9.12731 18.8402 9.14994C18.9474 9.17262 19.0581 9.17375 19.1658 9.15331C19.3832 9.11344 19.5758 8.98881 19.7013 8.80694C19.8268 8.625 19.8749 8.40069 19.835 8.18331C19.4116 5.88438 18.1957 3.8066 16.3988 2.31144C14.6018 0.816287 12.3376 -0.00162268 10 2.41701e-06C4.48583 2.41701e-06 0 4.48584 0 10C0 12.7633 1.16 15.43 3.18167 17.315C3.26141 17.3901 3.35526 17.4487 3.45777 17.4873C3.56029 17.5259 3.66944 17.5439 3.77893 17.5401C3.88842 17.5363 3.99607 17.5109 4.09566 17.4652C4.19526 17.4196 4.28481 17.3546 4.35917 17.2742C4.50974 17.1125 4.58994 16.8976 4.58212 16.6768C4.57431 16.456 4.47912 16.2473 4.3175 16.0967C3.48249 15.3157 2.8164 14.3718 2.36034 13.3234C1.90427 12.2749 1.66791 11.1442 1.66583 10.0008L1.66667 10Z" fill="currentColor"/></svg>