<svg width="20" height="20" viewBox="0 0 20 20" fill="none" xmlns="http://www.w3.org/2000/svg">
<path d="M17.5538 10.0022C17.4108 9.94229 17.2525 9.92972 17.1019 9.96631C16.9514 10.0029 16.8164 10.0868 16.7167 10.2056C16.0417 11.0121 14.8934 11.3877 13.1035 11.3877C10.3296 11.3877 8.60961 10.6366 8.60961 6.8973C8.60961 5.14942 8.99652 3.96667 9.79217 3.28268C10.0322 3.07559 10.1115 2.73652 9.98781 2.44411C9.92811 2.30106 9.82413 2.18104 9.69122 2.10174C9.55831 2.02244 9.4035 1.98806 9.24962 2.00368C7.26469 2.18337 5.41904 3.10254 4.07694 4.57978C2.73484 6.05703 1.99378 7.98502 2.00004 9.98324C2.00004 14.4036 5.59574 18 10.0162 18C14.1763 18 17.6076 14.8805 17.9967 10.7438C18.0115 10.589 17.9765 10.4335 17.8968 10.3C17.8171 10.1666 17.6969 10.0622 17.5538 10.0022ZM10.0169 16.5409C6.39866 16.5409 3.45534 13.5986 3.45534 9.98252C3.45088 8.65372 3.85095 7.35519 4.60211 6.26042C5.35327 5.16565 6.41974 4.32676 7.65905 3.85583C7.32159 4.68274 7.15577 5.69121 7.15577 6.89657C7.15577 12.2284 10.5507 12.8453 13.1042 12.8453C13.9886 12.8453 15.1123 12.7768 16.1421 12.3546C15.1923 14.8309 12.8053 16.5402 10.0176 16.5402L10.0169 16.5409Z" fill="black"/>
</svg>
