<svg width="20" height="20" viewBox="0 0 24 24" fill="none" xmlns="http://www.w3.org/2000/svg" transform="rotate(0 0 0)"><path d="M14.25 8.5C13.8358 8.5 13.5 8.83579 13.5 9.25C13.5 9.66421 13.8358 10 14.25 10H15.75C16.1642 10 16.5 9.66421 16.5 9.25C16.5 8.83579 16.1642 8.5 15.75 8.5H14.25Z" fill="currentColor"></path><path d="M10.5 12.25C10.5 11.8358 10.8358 11.5 11.25 11.5H15.75C16.1642 11.5 16.5 11.8358 16.5 12.25C16.5 12.6642 16.1642 13 15.75 13H11.25C10.8358 13 10.5 12.6642 10.5 12.25Z" fill="currentColor"></path><path fill-rule="evenodd" clip-rule="evenodd" d="M8.25 14.5C7.83579 14.5 7.5 14.8358 7.5 15.25V18.25C7.5 18.6642 7.83579 19 8.25 19H15.75C16.1642 19 16.5 18.6642 16.5 18.25V15.25C16.5 14.8358 16.1642 14.5 15.75 14.5H8.25ZM9 17.5V16H15V17.5H9Z" fill="currentColor"></path><path fill-rule="evenodd" clip-rule="evenodd" d="M19.5 19.75C19.5 20.9926 18.4926 22 17.25 22H6.75C5.50736 22 4.5 20.9926 4.5 19.75V9.62105C4.5 9.02455 4.73686 8.45247 5.15851 8.03055L10.5262 2.65951C10.9482 2.23725 11.5207 2 12.1177 2H17.25C18.4926 2 19.5 3.00736 19.5 4.25V19.75ZM17.25 20.5C17.6642 20.5 18 20.1642 18 19.75V4.25C18 3.83579 17.6642 3.5 17.25 3.5H12.248L12.2509 7.4984C12.2518 8.74166 11.2442 9.75 10.0009 9.75H6V19.75C6 20.1642 6.33579 20.5 6.75 20.5H17.25ZM7.05986 8.25L10.7488 4.55876L10.7509 7.49947C10.7512 7.91389 10.4153 8.25 10.0009 8.25H7.05986Z" fill="currentColor"></path></svg>