<svg width="20" height="20" viewBox="0 0 20 20" fill="none" xmlns="http://www.w3.org/2000/svg"><path d="M11.875 7.08334C11.5298 7.08334 11.25 7.36317 11.25 7.70834C11.25 8.05352 11.5298 8.33334 11.875 8.33334H13.125C13.4702 8.33334 13.75 8.05352 13.75 7.70834C13.75 7.36317 13.4702 7.08334 13.125 7.08334H11.875Z" fill="currentColor"/><path d="M8.75 10.2083C8.75 9.86318 9.02983 9.58334 9.375 9.58334H13.125C13.4702 9.58334 13.75 9.86318 13.75 10.2083C13.75 10.5535 13.4702 10.8333 13.125 10.8333H9.375C9.02983 10.8333 8.75 10.5535 8.75 10.2083Z" fill="currentColor"/><path fill-rule="evenodd" clip-rule="evenodd" d="M8.125 17.0833V18.3333H5.625C4.58947 18.3333 3.75 17.4938 3.75 16.4583V8.01753C3.75 7.52045 3.94738 7.04371 4.29876 6.69211L8.77183 2.21625C9.1235 1.86436 9.60058 1.66666 10.0981 1.66666H14.375C15.4105 1.66666 16.25 2.50612 16.25 3.54166V8.12499H15V3.54166C15 3.19648 14.7202 2.91666 14.375 2.91666H10.2067L10.2091 6.24866C10.2098 7.28471 9.37017 8.12499 8.33408 8.12499H5V16.4583C5 16.8035 5.27982 17.0833 5.625 17.0833H8.125ZM8.95733 3.79896L5.88322 6.87499H8.33408C8.67942 6.87499 8.95933 6.5949 8.95908 6.24955L8.95733 3.79896Z" fill="currentColor"/><path d="M17.6296 12.05C17.8736 11.8059 17.8736 11.4102 17.6296 11.1661C17.3856 10.922 16.9898 10.922 16.7457 11.1661L12.6952 15.2166L10.9629 13.4843C10.7188 13.2403 10.3231 13.2403 10.0791 13.4843C9.83498 13.7284 9.83498 14.1242 10.0791 14.3683L12.2533 16.5424C12.4974 16.7865 12.8931 16.7865 13.1371 16.5424L17.6296 12.05Z" fill="currentColor"/></svg>