<svg width="20" height="20" viewBox="0 0 24 24" fill="none" xmlns="http://www.w3.org/2000/svg" transform="rotate(0 0 0)"><path d="M15.9263 16.4277C15.8255 16.5365 15.6905 16.5909 15.5211 16.5909C15.3559 16.5909 15.2208 16.5365 15.116 16.4277C15.0153 16.3148 14.9649 16.1657 14.9649 15.9802V14.7951C14.9649 14.6097 15.0153 14.4626 15.116 14.3537C15.2208 14.2409 15.3559 14.1844 15.5211 14.1844C15.6905 14.1844 15.8255 14.2409 15.9263 14.3537C16.0311 14.4626 16.0835 14.6097 16.0835 14.7951V15.9802C16.0835 16.1657 16.0311 16.3148 15.9263 16.4277Z" fill="currentColor"></path><path d="M11.2832 16.4886C11.2832 16.5088 11.2933 16.5188 11.3135 16.5188H11.8335C11.9705 16.5188 12.0834 16.4664 12.1721 16.3616C12.2607 16.2528 12.3071 16.1117 12.3111 15.9384V14.8137C12.3111 14.6404 12.2668 14.5013 12.1781 14.3965C12.0894 14.2877 11.9725 14.2333 11.8274 14.2333H11.3135C11.2933 14.2333 11.2832 14.2433 11.2832 14.2635V16.4886Z" fill="currentColor"></path><path fill-rule="evenodd" clip-rule="evenodd" d="M17.25 22C18.4926 22 19.5 20.9926 19.5 19.75V19.0058H20.5C21.3284 19.0058 22 18.3342 22 17.5058V13.25C22 12.4216 21.3284 11.75 20.5 11.75H10.5C9.67157 11.75 9 12.4216 9 13.25V17.5058C9 18.3342 9.67157 19.0058 10.5 19.0058H18V19.75C18 20.1642 17.6642 20.5 17.25 20.5H6.75C6.33579 20.5 6 20.1642 6 19.75V9.75H10.0009C11.2442 9.75 12.2518 8.74166 12.2509 7.4984L12.248 3.5H17.25C17.6642 3.5 18 3.83579 18 4.25V11.7383H19.5V4.25C19.5 3.00736 18.4926 2 17.25 2H12.1177C11.5207 2 10.9482 2.23725 10.5262 2.65951L5.15851 8.03055C4.73686 8.45247 4.5 9.02455 4.5 9.62105V19.75C4.5 20.9926 5.50736 22 6.75 22H17.25ZM10.7488 4.55876L7.05986 8.25H10.0009C10.4153 8.25 10.7512 7.91389 10.7509 7.49947L10.7488 4.55876ZM19.253 17.5402C18.9225 17.5402 18.6302 17.4757 18.3763 17.3468C18.1263 17.2178 17.9308 17.0364 17.7897 16.8026C17.6527 16.5647 17.5842 16.2906 17.5842 15.9802V14.7588C17.5842 14.4525 17.6527 14.1824 17.7897 13.9486C17.9308 13.7148 18.1263 13.5334 18.3763 13.4044C18.6302 13.2754 18.9225 13.2109 19.253 13.2109C19.5835 13.2109 19.8738 13.2714 20.1237 13.3923C20.3777 13.5133 20.5732 13.6846 20.7102 13.9063C20.8513 14.124 20.9218 14.3779 20.9218 14.6681C20.9218 14.7044 20.8916 14.7266 20.8311 14.7347L19.8758 14.7951H19.8577C19.8093 14.7951 19.7851 14.773 19.7851 14.7286C19.7851 14.5633 19.7367 14.4323 19.64 14.3356C19.5432 14.2348 19.4142 14.1844 19.253 14.1844C19.0918 14.1844 18.9628 14.2348 18.866 14.3356C18.7693 14.4323 18.7209 14.5633 18.7209 14.7286V16.0286C18.7209 16.1899 18.7693 16.3209 18.866 16.4216C18.9628 16.5184 19.0918 16.5668 19.253 16.5668C19.4142 16.5668 19.5432 16.5184 19.64 16.4216C19.7367 16.3209 19.7851 16.1899 19.7851 16.0286C19.7851 16.0044 19.7932 15.9863 19.8093 15.9742C19.8254 15.9621 19.8476 15.9581 19.8758 15.9621L20.8311 16.0105C20.8916 16.0145 20.9218 16.0347 20.9218 16.0709C20.9218 16.3612 20.8513 16.6171 20.7102 16.8388C20.5732 17.0605 20.3777 17.2339 20.1237 17.3588C19.8738 17.4798 19.5835 17.5402 19.253 17.5402ZM14.6323 17.3649C14.8903 17.4979 15.1866 17.5644 15.5211 17.5644C15.8598 17.5644 16.156 17.4979 16.41 17.3649C16.668 17.2278 16.8675 17.0384 17.0086 16.7965C17.1497 16.5506 17.2202 16.2664 17.2202 15.944V14.8072C17.2202 14.4928 17.1497 14.2147 17.0086 13.9728C16.8675 13.7309 16.668 13.5435 16.41 13.4105C16.156 13.2774 15.8598 13.2109 15.5211 13.2109C15.1866 13.2109 14.8903 13.2774 14.6323 13.4105C14.3784 13.5435 14.1808 13.7309 14.0398 13.9728C13.8987 14.2147 13.8281 14.4928 13.8281 14.8072V15.944C13.8281 16.2664 13.8987 16.5506 14.0398 16.7965C14.1808 17.0384 14.3784 17.2278 14.6323 17.3649ZM10.2372 17.4923C10.209 17.4923 10.1868 17.4843 10.1707 17.4681C10.1545 17.452 10.1465 17.4298 10.1465 17.4016V13.3505C10.1465 13.3222 10.1545 13.3001 10.1707 13.284C10.1868 13.2678 10.209 13.2598 10.2372 13.2598H11.7911C12.1176 13.2598 12.4059 13.3162 12.6558 13.4291C12.9097 13.5419 13.1052 13.7012 13.2423 13.9067C13.3794 14.1123 13.4479 14.3502 13.4479 14.6202V16.1319C13.4479 16.4019 13.3794 16.6398 13.2423 16.8453C13.1052 17.0509 12.9097 17.2102 12.6558 17.323C12.4059 17.4359 12.1176 17.4923 11.7911 17.4923H10.2372Z" fill="currentColor"></path></svg>