<svg width="21" height="21" viewBox="0 0 21 21" fill="none" xmlns="http://www.w3.org/2000/svg"><path d="M14.5979 5.99544H15.4312V6.82878C15.4312 7.04979 15.519 7.26175 15.6753 7.41803C15.8316 7.57431 16.0436 7.66211 16.2646 7.66211C16.4856 7.66211 16.6975 7.57431 16.8538 7.41803C17.0101 7.26175 17.0979 7.04979 17.0979 6.82878V5.99544H17.9312C18.1522 5.99544 18.3642 5.90764 18.5205 5.75136C18.6768 5.59508 18.7646 5.38312 18.7646 5.16211C18.7646 4.9411 18.6768 4.72913 18.5205 4.57285C18.3642 4.41657 18.1522 4.32878 17.9312 4.32878H17.0979V3.49544C17.0979 3.27443 17.0101 3.06247 16.8538 2.90619C16.6975 2.74991 16.4856 2.66211 16.2646 2.66211C16.0436 2.66211 15.8316 2.74991 15.6753 2.90619C15.519 3.06247 15.4312 3.27443 15.4312 3.49544V4.32878H14.5979C14.3769 4.32878 14.1649 4.41657 14.0086 4.57285C13.8524 4.72913 13.7646 4.9411 13.7646 5.16211C13.7646 5.38312 13.8524 5.59508 14.0086 5.75136C14.1649 5.90764 14.3769 5.99544 14.5979 5.99544ZM17.9312 9.32878C17.7102 9.32878 17.4983 9.41657 17.342 9.57285C17.1857 9.72913 17.0979 9.94109 17.0979 10.1621V15.1621C17.0979 15.3831 17.0101 15.5951 16.8538 15.7514C16.6975 15.9076 16.4856 15.9954 16.2646 15.9954H4.5979C4.37689 15.9954 4.16493 15.9076 4.00864 15.7514C3.85236 15.5951 3.76457 15.3831 3.76457 15.1621V7.17044L8.66457 12.0788C9.13332 12.5469 9.76873 12.8099 10.4312 12.8099C11.0937 12.8099 11.7291 12.5469 12.1979 12.0788L14.2562 10.0204C14.4132 9.86352 14.5013 9.65069 14.5013 9.42878C14.5013 9.20686 14.4132 8.99403 14.2562 8.83711C14.0993 8.68019 13.8865 8.59203 13.6646 8.59203C13.4426 8.59203 13.2298 8.68019 13.0729 8.83711L11.0146 10.8954C10.8588 11.0481 10.6494 11.1337 10.4312 11.1337C10.2131 11.1337 10.0037 11.0481 9.8479 10.8954L4.93957 5.99544H11.2646C11.4856 5.99544 11.6975 5.90764 11.8538 5.75136C12.0101 5.59508 12.0979 5.38312 12.0979 5.16211C12.0979 4.9411 12.0101 4.72913 11.8538 4.57285C11.6975 4.41657 11.4856 4.32878 11.2646 4.32878H4.5979C3.93486 4.32878 3.29897 4.59217 2.83013 5.06101C2.36129 5.52985 2.0979 6.16573 2.0979 6.82878V15.1621C2.0979 15.8251 2.36129 16.461 2.83013 16.9299C3.29897 17.3987 3.93486 17.6621 4.5979 17.6621H16.2646C16.9276 17.6621 17.5635 17.3987 18.0323 16.9299C18.5012 16.461 18.7646 15.8251 18.7646 15.1621V10.1621C18.7646 9.94109 18.6768 9.72913 18.5205 9.57285C18.3642 9.41657 18.1522 9.32878 17.9312 9.32878Z" fill="currentColor"/></svg>