<svg width="20" height="20" viewBox="0 0 24 24" fill="none" xmlns="http://www.w3.org/2000/svg" transform="rotate(0 0 0)"><path d="M20 7.125L4 7.125C3.37868 7.125 2.875 6.62132 2.875 6C2.875 5.37868 3.37868 4.875 4 4.875L20 4.875C20.6213 4.875 21.125 5.37868 21.125 6C21.125 6.62132 20.6213 7.125 20 7.125ZM17 13.125L7 13.125C6.37868 13.125 5.875 12.6213 5.875 12C5.875 11.3787 6.37868 10.875 7 10.875L17 10.875C17.6213 10.875 18.125 11.3787 18.125 12C18.125 12.6213 17.6213 13.125 17 13.125ZM15 19.125L9 19.125C8.37868 19.125 7.875 18.6213 7.875 18C7.875 17.3787 8.37868 16.875 9 16.875L15 16.875C15.6213 16.875 16.125 17.3787 16.125 18C16.125 18.6213 15.6213 19.125 15 19.125Z" fill="currentColor"></path></svg>