<svg width="20" height="20" viewBox="0 0 20 20" fill="none" xmlns="http://www.w3.org/2000/svg"><path d="M17.2502 4.26174C17.2502 4.02846 17.2491 3.89897 17.2414 3.80568C17.2399 3.78775 17.2369 3.77442 17.2355 3.76467V3.76369C17.2247 3.76209 17.2084 3.76064 17.1857 3.75881C17.0894 3.75105 16.9561 3.75002 16.7199 3.75002H3.28043C3.04421 3.75002 2.91092 3.75105 2.81461 3.75881C2.7912 3.7607 2.77467 3.76206 2.76383 3.76369V3.76467C2.76248 3.77441 2.76042 3.78783 2.75894 3.80568C2.75121 3.89897 2.75015 4.02846 2.75015 4.26174V4.78908C2.75015 4.90202 2.75 4.95984 2.75211 5.00197C2.75241 5.0079 2.75281 5.01291 2.75308 5.01662V5.0176C2.7561 5.02063 2.76089 5.02476 2.76676 5.03029C2.79806 5.05981 2.8425 5.09813 2.92887 5.17189L8.04508 9.54201C8.14412 9.6266 8.26616 9.72629 8.37418 9.84767L8.47672 9.97756L8.54801 10.0889C8.61388 10.2039 8.6641 10.3275 8.6984 10.4561C8.75588 10.6717 8.75016 10.8936 8.75015 11.0654V16.0889L11.2502 15.1035V11.0654C11.2502 10.8936 11.2444 10.6717 11.3019 10.4561L11.342 10.3291C11.3871 10.2047 11.448 10.0865 11.5236 9.97756L11.6261 9.84767C11.7341 9.72629 11.8562 9.62661 11.9552 9.54201L17.0714 5.17189C17.1578 5.09813 17.2022 5.05981 17.2336 5.03029C17.2391 5.02505 17.2433 5.02059 17.2462 5.0176V5.01662C17.2465 5.0129 17.2479 5.00793 17.2482 5.00197C17.2503 4.95984 17.2502 4.90202 17.2502 4.78908V4.26174ZM18.7502 4.78908C18.7502 4.96086 18.7558 5.18286 18.6984 5.39846C18.6527 5.56985 18.5776 5.73247 18.4767 5.87795C18.3501 6.06037 18.1772 6.19965 18.0451 6.31252L12.9289 10.6826C12.8425 10.7564 12.7981 10.7947 12.7668 10.8242C12.7435 10.8462 12.7448 10.848 12.7531 10.8369V10.8379C12.7528 10.8417 12.7524 10.8465 12.7521 10.8526C12.75 10.8947 12.7502 10.9524 12.7502 11.0654V15.1875C12.7502 15.2814 12.7613 15.5255 12.6759 15.751C12.6108 15.9228 12.5053 16.0755 12.3693 16.1973C12.1916 16.3564 11.9629 16.4354 11.8732 16.4707L9.1525 17.543C9.01895 17.5956 8.87219 17.6538 8.7443 17.6914C8.61413 17.7297 8.40611 17.7782 8.16812 17.7295C7.87443 17.6693 7.61363 17.4965 7.44449 17.2451C7.30673 17.0403 7.27434 16.8268 7.26187 16.6914C7.24966 16.5587 7.25015 16.4011 7.25015 16.2598V11.0654C7.25015 10.9524 7.25032 10.8947 7.2482 10.8526C7.24789 10.8465 7.24653 10.8417 7.24625 10.8379V10.8369C7.24327 10.834 7.23902 10.8294 7.23355 10.8242C7.20224 10.7947 7.15777 10.7564 7.07144 10.6826L1.95523 6.31252C1.82308 6.19965 1.65022 6.06037 1.52359 5.87795C1.42267 5.73247 1.34762 5.56985 1.30191 5.39846C1.24448 5.18287 1.25015 4.96086 1.25015 4.78908V4.26174C1.25015 4.05352 1.24976 3.8513 1.26383 3.68166C1.27864 3.50294 1.31318 3.29459 1.42105 3.08596L1.4816 2.97951C1.63176 2.73836 1.84644 2.54372 2.10074 2.41603L2.25601 2.34963C2.41032 2.29549 2.56037 2.27351 2.69449 2.26271C2.86498 2.24899 3.06861 2.25002 3.28043 2.25002H16.7199C16.9317 2.25002 17.1353 2.24899 17.3058 2.26271C17.4847 2.27712 17.6917 2.31167 17.8996 2.41603C18.1903 2.56202 18.4291 2.79564 18.5793 3.08596C18.6871 3.29459 18.7217 3.50294 18.7365 3.68166C18.7505 3.8513 18.7502 4.05353 18.7502 4.26174V4.78908Z" fill="currentColor"/></svg>