<svg width="20" height="20" viewBox="0 0 20 20" fill="none" xmlns="http://www.w3.org/2000/svg"><path fill-rule="evenodd" clip-rule="evenodd" d="M4.32787 2C4.09836 2 4 2.176 4 2.35462C4 2.53325 4 10.0099 4 10.0099V17.6652C4 17.872 4.21311 18 4.42623 18C4.63934 18 4.99784 17.9201 9.05675 16.8528C11.5544 16.1961 13.4767 15.675 13.5235 15.642C13.5687 15.6101 13.6353 15.5254 13.6716 15.4539C13.7371 15.3251 13.7377 15.2729 13.737 10.0139C13.7363 4.87194 13.7343 4.69978 13.6742 4.5705C13.6023 4.416 13.4754 4.368 13.4098 4.336C13.3443 4.304 12.366 4.04957 11.032 3.6969C9.698 3.34422 8.56066 3.0105 8.52459 2.99418C10.6776 2.99418 12.8306 2.99344 14.9836 2.992V10.3076C14.9836 10.3076 14.9836 17.4066 14.9836 17.6233C14.9836 17.84 15.2402 18 15.4918 18C15.7434 18 16 17.776 16 17.6233C16 17.4706 16 10 16 10C16 10 16 2.51341 16 2.3767C16 2.18074 15.7869 2 15.614 2C15.4412 2 9.97915 2.00253 9.97915 2.00253C6.61938 2.00403 4.39344 2 4.32787 2ZM8.84734 4.16394C10.8969 4.70288 12.607 5.15613 12.6475 5.17114L12.7213 5.1984V9.99731C12.7213 12.878 12.7093 14.8035 12.6912 14.8144C12.6451 14.8422 5.12843 16.816 5.06869 16.816C5.02098 16.816 5.01639 16.2186 5.01639 10C5.01639 3.78486 5.02098 3.184 5.06866 3.184C5.09738 3.184 6.79777 3.62496 8.84734 4.16394ZM11.0815 9.02262C10.6469 9.25206 10.654 10.76 11.0908 10.9804C11.468 11.1708 11.7595 10.2579 11.5672 9.488C11.473 9.11024 11.2749 8.92054 11.0815 9.02262Z" fill="currentColor"/></svg>