<svg width="20" height="20" viewBox="0 0 20 20" fill="none" xmlns="http://www.w3.org/2000/svg"><path d="M16.6666 5.81836V3.33618C16.6666 3.1594 16.5964 2.98987 16.4714 2.86487C16.3464 2.73987 16.1768 2.66964 16 2.66964C15.8232 2.66964 15.6536 2.73987 15.5286 2.86487C15.4036 2.98987 15.3334 3.1594 15.3334 3.33618V4.9132L11.8646 2.573C11.3146 2.19962 10.665 2 10 2C9.33508 2 8.68547 2.19962 8.13534 2.573L3.46866 5.72171C3.01619 6.02667 2.64561 6.43812 2.38951 6.91987C2.13341 7.40164 1.99965 7.93893 2 8.4845V14.6673C2 16.5049 3.49534 18 5.33334 18H7.33334C7.51014 18 7.67971 17.9298 7.80474 17.8048C7.92976 17.6797 8 17.5102 8 17.3334V12.0012C8 11.6339 8.29866 11.3346 8.66666 11.3346H11.3334C11.7014 11.3346 12 11.6339 12 12.0012V17.3334C12 17.5102 12.0702 17.6797 12.1953 17.8048C12.3203 17.9298 12.4898 18 12.6666 18H14.6666C16.5046 18 18 16.5049 18 14.6673V8.4845C18.0002 7.96708 17.8799 7.45671 17.6485 6.99391C17.417 6.5311 17.0809 6.12861 16.6666 5.81836ZM16.6666 14.6673C16.6666 15.7697 15.7694 16.6669 14.6666 16.6669H13.3334V12.0012C13.3334 10.8987 12.436 10.0016 11.3334 10.0016H8.66666C7.564 10.0016 6.66666 10.8987 6.66666 12.0012V16.6669H5.33334C4.23066 16.6669 3.33334 15.7697 3.33334 14.6673V8.4845C3.33334 7.81863 3.66266 7.19876 4.21466 6.82683L8.88134 3.67811C9.21122 3.45403 9.60085 3.33422 9.99966 3.33422C10.3985 3.33422 10.7881 3.45403 11.118 3.67811L15.7846 6.82683C16.0562 7.00971 16.2787 7.25655 16.4324 7.54562C16.5861 7.8347 16.6663 8.15713 16.666 8.4845L16.6666 14.6673Z" fill="currentColor"/></svg>