<svg width="20" height="20" viewBox="0 0 20 20" fill="none" xmlns="http://www.w3.org/2000/svg"><path d="M14.333 16.4997V17.9997H5.66699V16.4997H14.333ZM16.499 14.3336V12.3327C16.4989 11.8746 16.1241 11.4997 15.666 11.4997H13.7939C13.5539 13.0102 12.2436 14.1667 10.666 14.1667H8.99805C8.1589 14.1659 7.35412 13.8313 6.76074 13.2379C6.28637 12.7634 5.97891 12.1539 5.87402 11.4997H4.33301C3.875 11.4998 3.50012 11.8747 3.5 12.3327V14.3336C3.50009 15.5264 4.47423 16.4997 5.66699 16.4997V17.9997L5.47852 17.9948C3.60673 17.8997 2.10027 16.3938 2.00488 14.5221L2 14.3336V12.3327C2.00012 11.0462 3.04658 9.99979 4.33301 9.99966H6.33301C6.59819 9.99966 6.85252 10.1051 7.04004 10.2926C7.22757 10.4802 7.33301 10.7345 7.33301 10.9997C7.33337 11.4414 7.50903 11.865 7.82129 12.1774C8.09468 12.4508 8.45358 12.6197 8.83496 12.6579L9 12.6667H10.666L10.8369 12.6579C11.6204 12.5779 12.2446 11.9532 12.3242 11.1696L12.333 10.9997C12.333 10.7345 12.4384 10.4802 12.626 10.2926C12.7901 10.1285 13.0054 10.0272 13.2344 10.0045L13.333 9.99966H15.666C16.9526 9.99966 17.9989 11.0462 17.999 12.3327V14.3336L17.9941 14.5221C17.8956 16.456 16.2909 17.9996 14.333 17.9997V16.4997C15.5257 16.4996 16.4989 15.5263 16.499 14.3336Z" fill="currentColor"/><path d="M9.57055 9.82034C9.62667 9.87718 9.69351 9.92231 9.76721 9.95311C9.84091 9.98391 9.91999 9.99977 9.99986 9.99977C10.0797 9.99977 10.1588 9.98391 10.2325 9.95311C10.3062 9.92231 10.3731 9.87718 10.4292 9.82034L12.6284 7.59243C12.7038 7.51619 12.7549 7.41934 12.7754 7.31409C12.7958 7.20885 12.7847 7.0999 12.7434 7.00097C12.702 6.90204 12.6323 6.81756 12.5431 6.75815C12.4538 6.69875 12.349 6.66708 12.2418 6.66714H10.9998V2.99996C10.9998 2.73475 10.8945 2.48041 10.7069 2.29288C10.5194 2.10535 10.2651 2 9.99986 2C9.73466 2 9.48031 2.10535 9.29279 2.29288C9.10526 2.48041 8.9999 2.73475 8.9999 2.99996V6.66647H7.75796C7.65074 6.66641 7.5459 6.69808 7.45664 6.75749C7.36739 6.81689 7.2977 6.90138 7.25636 7.0003C7.21502 7.09923 7.20388 7.20818 7.22433 7.31343C7.24479 7.41868 7.29592 7.51552 7.37131 7.59177L9.57055 9.81967V9.82034Z" fill="currentColor"/></svg>