<svg width="20" height="20" viewBox="0 0 25 24" fill="none" xmlns="http://www.w3.org/2000/svg" transform="rotate(0 0 0)"><path d="M10.4961 3.25H6.14844C4.9058 3.25 3.89844 4.25736 3.89844 5.5V18.5C3.89844 19.7426 4.9058 20.75 6.14844 20.75H19.147C20.3896 20.75 21.397 19.7426 21.397 18.5L21.397 14.1504H19.897L19.897 18.5C19.897 18.9142 19.5612 19.25 19.147 19.25H6.14844C5.73422 19.25 5.39844 18.9142 5.39844 18.5V5.5C5.39844 5.08579 5.73422 4.75 6.14844 4.75H10.4961V3.25Z" fill="currentColor"></path><path d="M14.8529 8.73511L14.8518 5.50488C14.8517 5.09066 14.5158 4.75498 14.1016 4.75511C13.6874 4.75525 13.3517 5.09114 13.3518 5.50535L13.3534 10.5238C13.3477 10.7229 13.4208 10.9239 13.5728 11.0758C13.7351 11.2382 13.9534 11.3105 14.1656 11.2929L19.1411 11.2947C19.5553 11.2948 19.8913 10.9591 19.8914 10.5449C19.8915 10.1307 19.5559 9.79482 19.1417 9.79467L15.9158 9.79354L21.1713 4.53804C21.4641 4.24515 21.4642 3.77028 21.1713 3.47738C20.8784 3.18449 20.4035 3.18449 20.1106 3.47738L14.8529 8.73511Z" fill="currentColor"></path></svg>