<svg width="20" height="20" viewBox="0 0 20 20" fill="none" xmlns="http://www.w3.org/2000/svg"><path fill-rule="evenodd" clip-rule="evenodd" d="M8.37108 17.4167C8.69392 17.8889 9.08558 18.3104 9.53167 18.6667H4.875C3.83947 18.6667 3 17.8272 3 16.7917V8.35087C3 7.85379 3.19738 7.37706 3.54876 7.02546L8.02183 2.54959C8.3735 2.19771 8.85058 2 9.34808 2H13.625C14.6605 2 15.5 2.83947 15.5 3.875V8.98183C15.1055 8.79992 14.6867 8.66159 14.25 8.57294V3.875C14.25 3.52982 13.9702 3.25 13.625 3.25H9.45667L9.45908 6.582C9.45983 7.61805 8.62017 8.45833 7.58408 8.45833H4.25V16.7917C4.25 17.1368 4.52982 17.4167 4.875 17.4167H8.37108ZM8.20733 4.1323L5.13322 7.20833H7.58408C7.92942 7.20833 8.20933 6.92824 8.20908 6.58289L8.20733 4.1323Z" fill="currentColor"/><path d="M15.1041 9.70837C15.4493 9.70837 15.7291 9.98821 15.7291 10.3334V10.6982C16.5548 10.8237 17.1874 11.5367 17.1874 12.3974C17.1874 12.7426 16.9076 13.0224 16.5624 13.0224C16.2173 13.0224 15.9374 12.7426 15.9374 12.3974C15.9374 12.1385 15.7275 11.9285 15.4686 11.9285H14.8958C14.5506 11.9285 14.2708 12.2084 14.2708 12.5535V12.7745C14.2708 13.035 14.4323 13.2682 14.6763 13.3597L15.9708 13.8451C16.7026 14.1196 17.1874 14.8192 17.1874 15.6008V15.8216C17.1874 16.714 16.5641 17.4607 15.7291 17.6502V18.0419C15.7291 18.3871 15.4493 18.6669 15.1041 18.6669C14.7589 18.6669 14.4791 18.3871 14.4791 18.0419V17.677C13.6534 17.5515 13.0208 16.8385 13.0208 15.9778C13.0208 15.6326 13.3006 15.3528 13.6458 15.3528C13.9909 15.3528 14.2708 15.6326 14.2708 15.9778C14.2708 16.2368 14.4807 16.4466 14.7396 16.4466H15.3124C15.6576 16.4466 15.9374 16.1669 15.9374 15.8216V15.6008C15.9374 15.3402 15.7758 15.107 15.5319 15.0155L14.2373 14.53C13.5056 14.2556 13.0208 13.556 13.0208 12.7745V12.5535C13.0208 11.6612 13.6441 10.9145 14.4791 10.725V10.3334C14.4791 9.98821 14.7589 9.70837 15.1041 9.70837Z" fill="currentColor"/><path d="M5.25 10.9584C5.25 10.6132 5.52983 10.3334 5.875 10.3334H10.875C11.2202 10.3334 11.5 10.6132 11.5 10.9584C11.5 11.3035 11.2202 11.5834 10.875 11.5834H5.875C5.52983 11.5834 5.25 11.3035 5.25 10.9584Z" fill="currentColor"/><path d="M5.25 13.4584C5.25 13.1132 5.52983 12.8334 5.875 12.8334H8.375C8.72017 12.8334 9 13.1132 9 13.4584C9 13.8035 8.72017 14.0834 8.375 14.0834H5.875C5.52983 14.0834 5.25 13.8035 5.25 13.4584Z" fill="currentColor"/></svg>
