<svg width="20" height="20" viewBox="0 0 20 20" fill="none" xmlns="http://www.w3.org/2000/svg"><path d="M10.5 15.9172L14.0748 12.2723C16.0491 10.2593 16.0491 6.99555 14.0748 4.98252C12.1005 2.9695 8.89949 2.9695 6.92518 4.98252C4.95086 6.99555 4.95086 10.2593 6.92518 12.2723L10.5 15.9172ZM10.5 18L5.9038 13.3137C3.3654 10.7255 3.3654 6.5293 5.9038 3.94113C8.44221 1.35296 12.5577 1.35296 15.0962 3.94113C17.6346 6.5293 17.6346 10.7255 15.0962 13.3137L10.5 18ZM10.5 10.1002C11.2978 10.1002 11.9444 9.44083 11.9444 8.62742C11.9444 7.81404 11.2978 7.15466 10.5 7.15466C9.70223 7.15466 9.05555 7.81404 9.05555 8.62742C9.05555 9.44083 9.70223 10.1002 10.5 10.1002ZM10.5 11.5729C8.9045 11.5729 7.61111 10.2542 7.61111 8.62742C7.61111 7.00066 8.9045 5.6819 10.5 5.6819C12.0955 5.6819 13.3889 7.00066 13.3889 8.62742C13.3889 10.2542 12.0955 11.5729 10.5 11.5729Z" fill="currentColor"/></svg>