<svg width="20" height="20" viewBox="0 0 20 20" fill="none" xmlns="http://www.w3.org/2000/svg"><path d="M20.0002 1.66667V5C20.0002 5.22101 19.9124 5.43298 19.7561 5.58926C19.5998 5.74554 19.3879 5.83333 19.1668 5.83333C18.9458 5.83333 18.7339 5.74554 18.5776 5.58926C18.4213 5.43298 18.3335 5.22101 18.3335 5V2.845L14.9477 6.23C14.4086 6.76813 13.6781 7.07038 12.9164 7.07038C12.1547 7.07038 11.4242 6.76813 10.8852 6.23L8.76931 4.115C8.54287 3.88931 8.23612 3.76259 7.91644 3.76259C7.59669 3.76259 7.29 3.88931 7.0635 4.115L1.42267 9.75581C1.34546 9.8335 1.25366 9.89512 1.15254 9.93719C1.05143 9.97919 0.943006 10.0009 0.8335 10.0009C0.723994 10.0009 0.615568 9.97919 0.514457 9.93719C0.413346 9.89512 0.321546 9.8335 0.244334 9.75581C0.166879 9.6785 0.105431 9.58669 0.0635056 9.48556C0.0215802 9.3845 0 9.27613 0 9.16669C0 9.05725 0.0215802 8.94887 0.0635056 8.84775C0.105431 8.74669 0.166879 8.65481 0.244334 8.5775L5.88517 2.93667C6.42419 2.39852 7.15475 2.09628 7.91644 2.09628C8.67806 2.09628 9.40862 2.39852 9.94769 2.93667L12.0635 5.05167C12.2899 5.27756 12.5966 5.40442 12.9164 5.40442C13.2362 5.40442 13.5429 5.27756 13.7693 5.05167L17.1543 1.66667H14.9993C14.7783 1.66667 14.5664 1.57887 14.4101 1.42259C14.2538 1.26631 14.166 1.05435 14.166 0.833331C14.166 0.612319 14.2538 0.400358 14.4101 0.244077C14.5664 0.0877975 14.7783 0 14.9993 0H18.3327C19.2518 0 20.0002 0.7475 20.0002 1.66667ZM18.071 13.5558L15.5377 13.1342C15.3873 13.1096 15.2506 13.0323 15.1521 12.9161C15.0536 12.7999 14.9997 12.6523 15.0002 12.5C15.0002 12.279 15.0879 12.067 15.2443 11.9107C15.4005 11.7544 15.6125 11.6667 15.8335 11.6667H17.7235C18.0202 11.6667 18.2968 11.8258 18.446 12.0842C18.5006 12.1791 18.5733 12.2624 18.6602 12.3291C18.747 12.3957 18.8462 12.4446 18.952 12.4728C19.0578 12.501 19.1682 12.508 19.2767 12.4933C19.3852 12.4787 19.4897 12.4427 19.5843 12.3875C19.6791 12.3328 19.7622 12.2599 19.8287 12.1731C19.8953 12.0862 19.9441 11.9871 19.9723 11.8813C20.0005 11.7756 20.0075 11.6653 19.993 11.5568C19.9784 11.4483 19.9427 11.3438 19.8877 11.2492C19.6675 10.8699 19.3517 10.5549 18.9719 10.3357C18.5919 10.1165 18.1613 10.0008 17.7227 10H17.4993V9.16669C17.4993 8.94563 17.4116 8.73369 17.2553 8.57744C17.099 8.42112 16.887 8.33331 16.666 8.33331C16.445 8.33331 16.233 8.42112 16.0767 8.57744C15.9204 8.73369 15.8327 8.94563 15.8327 9.16669V10C14.4543 10 13.3327 11.1217 13.3327 12.5C13.3327 13.6325 14.1443 14.5917 15.2618 14.7775L17.7952 15.1992C17.9455 15.2238 18.0822 15.3011 18.1807 15.4173C18.2792 15.5335 18.3331 15.681 18.3327 15.8333C18.3327 16.0544 18.2449 16.2663 18.0886 16.4226C17.9323 16.5789 17.7204 16.6667 17.4993 16.6667H15.6093C15.3127 16.6667 15.036 16.5075 14.8868 16.2492C14.8324 16.1541 14.7597 16.0706 14.6729 16.0038C14.5861 15.937 14.4869 15.8881 14.381 15.8599C14.2751 15.8316 14.1647 15.8247 14.0561 15.8395C13.9476 15.8543 13.843 15.8904 13.7485 15.9458C13.6537 16.0006 13.5706 16.0734 13.5041 16.1602C13.4375 16.2471 13.3887 16.3463 13.3606 16.4521C13.3324 16.5578 13.3253 16.6681 13.3399 16.7766C13.3544 16.885 13.3902 16.9896 13.4452 17.0842C13.6652 17.4636 13.9809 17.7786 14.3609 17.9979C14.7407 18.2171 15.1716 18.3327 15.6102 18.3333H15.8335V19.1667C15.8335 19.3877 15.9213 19.5996 16.0776 19.7559C16.2339 19.9122 16.4458 20 16.6668 20C16.8879 20 17.0998 19.9122 17.2561 19.7559C17.4124 19.5996 17.5002 19.3877 17.5002 19.1667V18.3333C18.8785 18.3333 20.0002 17.2117 20.0002 15.8333C20.0002 14.7008 19.1885 13.7417 18.071 13.5558ZM1.66683 11.6667C1.44582 11.6667 1.23386 11.7544 1.07758 11.9107C0.9213 12.067 0.8335 12.279 0.8335 12.5V19.1667C0.8335 19.3877 0.9213 19.5996 1.07758 19.7559C1.23386 19.9122 1.44582 20 1.66683 20C1.88785 20 2.09981 19.9122 2.25609 19.7559C2.41237 19.5996 2.50017 19.3877 2.50017 19.1667V12.5C2.50017 12.279 2.41237 12.067 2.25609 11.9107C2.09981 11.7544 1.88785 11.6667 1.66683 11.6667ZM5.8335 7.91669C5.61249 7.91669 5.40052 8.00444 5.24424 8.16075C5.08796 8.317 5.00017 8.529 5.00017 8.75V19.1667C5.00017 19.3877 5.08796 19.5996 5.24424 19.7559C5.40052 19.9122 5.61249 20 5.8335 20C6.05451 20 6.2665 19.9122 6.42275 19.7559C6.57906 19.5996 6.66681 19.3877 6.66681 19.1667V8.75C6.66681 8.529 6.57906 8.317 6.42275 8.16075C6.2665 8.00444 6.05451 7.91669 5.8335 7.91669ZM10.0002 7.91669C9.77912 7.91669 9.56719 8.00444 9.41094 8.16075C9.25462 8.317 9.16681 8.529 9.16681 8.75V19.1667C9.16681 19.3877 9.25462 19.5996 9.41094 19.7559C9.56719 19.9122 9.77912 20 10.0002 20C10.2212 20 10.4331 19.9122 10.5894 19.7559C10.7457 19.5996 10.8335 19.3877 10.8335 19.1667V8.75C10.8335 8.529 10.7457 8.317 10.5894 8.16075C10.4331 8.00444 10.2212 7.91669 10.0002 7.91669Z" fill="currentColor"/></svg>