<svg width="20" height="20" viewBox="0 0 20 20" fill="none" xmlns="http://www.w3.org/2000/svg">
<path d="M17.25 15.5996C17.2498 14.6885 16.5107 13.9502 15.5996 13.9502C14.6886 13.9504 13.9504 14.6886 13.9502 15.5996C13.9502 16.5107 14.6885 17.2498 15.5996 17.25C16.5109 17.25 17.25 16.5109 17.25 15.5996ZM9.94727 3.65039C11.152 3.65039 12.1041 3.64917 12.8096 3.70703C13.1646 3.73616 13.491 3.78276 13.7754 3.86328C14.0589 3.9436 14.3472 4.07084 14.582 4.29297C15.1695 4.84884 15.4301 5.66789 15.2715 6.46094C15.208 6.77806 15.0465 7.04892 14.8613 7.27832C14.6756 7.50833 14.4352 7.73405 14.1621 7.96289C13.6197 8.41743 12.8428 8.96653 11.8594 9.66211L8.60742 11.9619C7.60077 12.6739 6.8852 13.1815 6.40137 13.5869C6.16133 13.7881 6.00444 13.9428 5.90625 14.0645C5.8091 14.1848 5.79818 14.2365 5.79883 14.2334C5.74154 14.5202 5.83639 14.8166 6.04883 15.0176C6.05376 15.0216 6.09768 15.0553 6.2334 15.0938C6.38375 15.1363 6.60109 15.1726 6.91309 15.1982C7.54219 15.2498 8.4194 15.25 9.65234 15.25H10.4004C10.8144 15.2502 11.1504 15.5859 11.1504 16C11.1504 16.4141 10.8144 16.7498 10.4004 16.75H9.65234C8.44773 16.75 7.49641 16.7502 6.79102 16.6924C6.43607 16.6633 6.10955 16.6176 5.8252 16.5371C5.54156 16.4568 5.25249 16.3296 5.01758 16.1074C4.43023 15.5516 4.16967 14.7324 4.32812 13.9395C4.39156 13.6223 4.55402 13.3515 4.73926 13.1221C4.92498 12.892 5.16439 12.6654 5.4375 12.4365C5.98002 11.9819 6.75761 11.433 7.74121 10.7373L10.9932 8.4375C11.9996 7.72562 12.7154 7.21885 13.1992 6.81348C13.4389 6.61258 13.5952 6.45747 13.6934 6.33594C13.7822 6.22594 13.7991 6.17291 13.8008 6.16699C13.8581 5.88028 13.764 5.58387 13.5518 5.38281C13.5518 5.38287 13.5109 5.34763 13.3662 5.30664C13.2158 5.26408 12.9985 5.22774 12.6865 5.20215C12.0574 5.15055 11.1803 5.15039 9.94727 5.15039H9.59961C9.18571 5.15018 8.84982 4.81429 8.84961 4.40039C8.84961 3.98631 9.18558 3.6506 9.59961 3.65039H9.94727ZM6.0498 4.40039C6.0498 3.48925 5.31148 2.75021 4.40039 2.75C3.48912 2.75 2.75 3.48912 2.75 4.40039C2.75021 5.31148 3.48925 6.0498 4.40039 6.0498C5.31135 6.04959 6.04959 5.31135 6.0498 4.40039ZM18.75 15.5996C18.75 17.3393 17.3393 18.75 15.5996 18.75C13.8601 18.7498 12.4502 17.3392 12.4502 15.5996C12.4504 13.8602 13.8602 12.4504 15.5996 12.4502C17.3392 12.4502 18.7498 13.8601 18.75 15.5996ZM7.5498 4.40039C7.54959 6.13978 6.13978 7.54959 4.40039 7.5498C2.66082 7.5498 1.25021 6.13991 1.25 4.40039C1.25 2.66069 2.66069 1.25 4.40039 1.25C6.13991 1.25021 7.5498 2.66082 7.5498 4.40039Z" fill="currentColor"/></svg>