<svg width="20" height="20" viewBox="0 0 20 20" fill="none" xmlns="http://www.w3.org/2000/svg"><path d="M13.75 0C10.245 0 7.5 1.6475 7.5 3.75V5.90583C7.08512 5.85724 6.66775 5.83303 6.25 5.83333C2.745 5.83333 0 7.48081 0 9.58331V16.25C0 18.3525 2.745 20 6.25 20C9.08919 20 11.43 18.9192 12.2167 17.3908C12.715 17.4633 13.2283 17.5 13.75 17.5C17.255 17.5 20 15.8525 20 13.75V3.75C20 1.6475 17.255 0 13.75 0ZM18.3333 10.4167C18.3333 11.4 16.3733 12.5 13.75 12.5C13.3233 12.5 12.905 12.4708 12.5 12.4142V10.7608C12.9083 10.8083 13.3267 10.8333 13.75 10.8333C15.5783 10.8333 17.2 10.385 18.3333 9.6575V10.4167ZM1.66667 12.1575C2.8 12.885 4.42167 13.3333 6.25 13.3333C8.07831 13.3333 9.7 12.885 10.8333 12.1575V12.9167C10.8333 13.9 8.87331 15 6.25 15C3.62667 15 1.66667 13.9 1.66667 12.9167V12.1575ZM18.3333 7.08331C18.3333 8.06669 16.3733 9.16669 13.75 9.16669C13.3042 9.16669 12.8667 9.135 12.445 9.07331C12.2842 8.33419 11.7783 7.67 11.0233 7.1375C11.8433 7.37081 12.7667 7.5 13.75 7.5C15.5783 7.5 17.2 7.05169 18.3333 6.32419V7.08331ZM13.75 1.66667C16.3733 1.66667 18.3333 2.76667 18.3333 3.75C18.3333 4.73333 16.3733 5.83333 13.75 5.83333C11.1267 5.83333 9.16669 4.73333 9.16669 3.75C9.16669 2.76667 11.1267 1.66667 13.75 1.66667ZM6.25 7.5C8.87331 7.5 10.8333 8.6 10.8333 9.58331C10.8333 10.5667 8.87331 11.6667 6.25 11.6667C3.62667 11.6667 1.66667 10.5667 1.66667 9.58331C1.66667 8.6 3.62667 7.5 6.25 7.5ZM6.25 18.3333C3.62667 18.3333 1.66667 17.2333 1.66667 16.25V15.4908C2.8 16.2183 4.42167 16.6667 6.25 16.6667C8.07831 16.6667 9.7 16.2183 10.8333 15.4908V16.25C10.8333 17.2333 8.87331 18.3333 6.25 18.3333ZM13.75 15.8333C13.3233 15.8333 12.905 15.8042 12.5 15.7475V14.0942C12.9083 14.1417 13.3267 14.1667 13.75 14.1667C15.5783 14.1667 17.2 13.7183 18.3333 12.9908V13.75C18.3333 14.7333 16.3733 15.8333 13.75 15.8333Z" fill="currentColor"/></svg>