<svg width="20" height="20" viewBox="0 0 24 24" fill="none" xmlns="http://www.w3.org/2000/svg" transform="rotate(0 0 0)"><path fill-rule="evenodd" clip-rule="evenodd" d="M12 2C11.5858 2 11.25 2.33579 11.25 2.75V12C11.25 12.4142 11.5858 12.75 12 12.75H21.25C21.6642 12.75 22 12.4142 22 12C22 6.47715 17.5228 2 12 2ZM12.75 11.25V3.53263C16.846 3.89072 20.1093 7.15398 20.4674 11.25H12.75Z" fill="currentColor"></path><path d="M2 11.9998C2 7.25058 5.31065 3.27464 9.75 2.25391V3.80075C6.14748 4.7871 3.5 8.08426 3.5 11.9998C3.5 16.6942 7.30558 20.4998 12 20.4998C15.9154 20.4998 19.2125 17.8524 20.199 14.25H21.7458C20.725 18.6892 16.7491 21.9998 12 21.9998C6.47715 21.9998 2 17.5226 2 11.9998Z" fill="currentColor"></path></svg>