<svg width="20" height="20" viewBox="0 0 24 24" fill="none" xmlns="http://www.w3.org/2000/svg" transform="rotate(0 0 0)"><path d="M21.5237 19.3L18.7929 18.31C18.5428 18.22 18.2527 18.27 18.0527 18.44C18.0427 18.45 16.7623 19.5 15.2818 19.5C13.8013 19.5 12.5209 18.45 12.5009 18.44C12.2209 18.2 11.8107 18.2 11.5306 18.44C11.5206 18.45 10.2402 19.5 8.74978 19.5C7.25932 19.5 5.98893 18.45 5.96892 18.44C5.75886 18.26 5.47877 18.21 5.22869 18.31L2.49785 19.3C2.10773 19.44 1.90767 19.87 2.04771 20.26C2.18775 20.65 2.61789 20.85 3.00801 20.71L5.35873 19.85C5.95892 20.26 7.23931 21 8.73978 21C10.1502 21 11.3606 20.36 12.0008 19.94C12.641 20.36 13.8514 21 15.2618 21C16.7723 21 18.0427 20.27 18.6428 19.85L20.9936 20.71C21.3837 20.85 21.8138 20.65 21.9539 20.26C22.0939 19.87 21.8938 19.44 21.5037 19.3H21.5237Z" fill="currentColor"></path><path d="M3.06802 17.69L5.34873 16.64C5.96892 17.15 7.23931 18 8.73978 18C10.1402 18 11.3406 17.25 12.0008 16.74C12.661 17.25 13.8614 18 15.2618 18C16.7623 18 18.0326 17.14 18.6528 16.64L20.9335 17.69C21.3137 17.86 21.7538 17.69 21.9339 17.32C22.1039 16.94 21.9339 16.5 21.5637 16.32L18.8329 15.07C18.5428 14.94 18.2027 15 17.9826 15.23C17.9726 15.24 16.7022 16.5 15.2618 16.5C13.8213 16.5 12.551 15.24 12.541 15.23C12.4009 15.09 12.2108 15 12.0008 15C11.8007 15 11.6107 15.08 11.4606 15.22C11.4506 15.23 10.1902 16.49 8.73978 16.49C7.28933 16.49 6.02894 15.23 6.01894 15.22C5.79887 14.99 5.45876 14.93 5.16867 15.06L2.43783 16.31C2.05771 16.48 1.89766 16.93 2.06772 17.31C2.23777 17.69 2.68791 17.85 3.06802 17.68V17.69Z" fill="currentColor"></path><path d="M4.00831 3.5C5.2487 3.5 6.25901 4.51 6.25901 5.75V13.97C6.33904 14.01 6.40906 14.06 6.47908 14.11C6.80918 14.36 7.25932 14.64 7.75947 14.82V13.19H16.7623V14.61C17.0623 14.46 17.3324 14.28 17.5425 14.12C17.7526 13.96 17.9926 13.84 18.2627 13.77V5.75C18.2627 3.68 16.5822 2 14.5116 2C14.1014 2 13.7613 2.34 13.7613 2.75C13.7613 3.16 14.1014 3.5 14.5116 3.5C15.7519 3.5 16.7623 4.51 16.7623 5.75V7.94H7.75947V5.75C7.75947 3.68 6.07895 2 4.00831 2C3.59819 2 3.25808 2.34 3.25808 2.75C3.25808 3.16 3.59819 3.5 4.00831 3.5ZM7.75947 9.44H16.7623V11.69H7.75947V9.44Z" fill="currentColor"></path></svg>