<svg width="20" height="20" viewBox="0 0 20 20" fill="none" xmlns="http://www.w3.org/2000/svg"><path fill-rule="evenodd" clip-rule="evenodd" d="M14.7442 18.2195C10.6299 18.2195 6.51564 18.2195 2.40134 18.2195C2.1227 18.1128 1.99973 17.915 2 17.6124C2.00359 12.7782 2.00242 7.94402 2.00274 3.10982C2.00274 2.70799 2.19859 2.51375 2.60141 2.51357C3.51447 2.51317 4.42753 2.51344 5.34063 2.51344C5.40041 2.51344 5.46015 2.51344 5.53388 2.51344C5.53388 2.20959 5.54316 1.92472 5.53137 1.6407C5.5185 1.32905 5.63322 1.10983 5.93271 1C7.69277 1 9.45282 1 11.2129 1C11.4323 1.10571 11.5927 1.25317 11.5876 1.52109C11.5854 1.63872 11.5875 1.7564 11.5875 1.87404C11.5876 2.08456 11.5875 2.29507 11.5875 2.51339C11.6748 2.51339 11.7361 2.51339 11.7974 2.51339C12.6938 2.51339 13.5903 2.51339 14.4868 2.51344C14.9418 2.51344 15.1188 2.68843 15.1188 3.13929C15.119 5.22915 15.1189 7.31898 15.1189 9.4088C15.1189 9.4654 15.1189 9.52199 15.1189 9.57855C15.1365 9.58563 15.154 9.59267 15.1716 9.59976C15.2492 9.51208 15.3229 9.42046 15.4052 9.3374C15.697 9.04288 15.9638 9.0449 16.2607 9.34139C16.7682 9.84813 17.2754 10.3551 17.7821 10.8628C18.0739 11.1552 18.0726 11.4235 17.7782 11.7181C16.9307 12.5663 16.0837 13.4149 15.2332 14.26C15.1514 14.3413 15.1159 14.422 15.1164 14.5383C15.1207 15.5468 15.111 16.5554 15.1236 17.5638C15.1275 17.8737 15.033 18.0946 14.7442 18.2195ZM11.6025 3.52987C11.5949 3.55906 11.5898 3.5696 11.5898 3.58019C11.5887 3.866 11.5883 4.15186 11.5875 4.43768C11.5864 4.84678 11.3996 5.03564 10.9942 5.03568C9.37994 5.03595 7.76569 5.03591 6.15143 5.03573C5.72448 5.03568 5.53446 4.84723 5.53388 4.42364C5.53347 4.12836 5.53379 3.83309 5.53379 3.53498C4.68432 3.53498 3.85338 3.53498 3.02083 3.53498C3.02083 8.09637 3.02083 12.6451 3.02083 17.1989C6.72006 17.1989 10.4098 17.1989 14.1 17.1989C14.1 16.6023 14.1 16.0174 14.1 15.3708C13.8662 15.7393 13.538 15.7001 13.219 15.6978C12.8098 15.6948 12.4006 15.6979 11.9915 15.6968C11.6231 15.6958 11.421 15.4937 11.4198 15.1234C11.4182 14.6302 11.4245 14.1369 11.4171 13.6437C11.4137 13.4211 11.4879 13.2479 11.6466 13.0909C12.4315 12.3142 13.2087 11.5299 13.9929 10.7525C14.0801 10.6661 14.1125 10.5802 14.1123 10.459C14.109 8.2114 14.1099 5.96381 14.1099 3.71612C14.1099 3.65638 14.1099 3.59669 14.1099 3.52982C13.2633 3.52987 12.4362 3.52987 11.6025 3.52987ZM6.5521 4.01701C7.89584 4.01701 9.23024 4.01701 10.5668 4.01701C10.5668 3.34474 10.5668 2.68242 10.5668 2.02226C9.22082 2.02226 7.88678 2.02226 6.5521 2.02226C6.5521 2.69377 6.5521 3.35187 6.5521 4.01701ZM15.8236 10.3563C15.8132 10.364 15.7935 10.3748 15.7781 10.3901C14.6845 11.483 13.5911 12.5762 12.4984 13.6701C12.4716 13.6969 12.4345 13.732 12.434 13.7637C12.4291 14.0692 12.4311 14.3748 12.4311 14.6882C12.7119 14.6882 12.9694 14.6836 13.2266 14.6903C13.3351 14.6931 13.4126 14.6618 13.4907 14.5835C14.5456 13.5232 15.6041 12.4665 16.6614 11.4086C16.6996 11.3704 16.7348 11.3292 16.7649 11.2964C16.4453 10.9771 16.1367 10.6689 15.8236 10.3563Z" fill="currentColor"/><path fill-rule="evenodd" clip-rule="evenodd" d="M11.0827 8.55152C11.0827 9.17047 11.0827 9.76901 11.0827 10.3675C11.0827 10.5355 11.0839 10.7036 11.0823 10.8716C11.0792 11.2227 10.8795 11.4248 10.5303 11.4254C9.68457 11.4268 8.83892 11.4259 7.99322 11.4259C7.53958 11.4259 7.08595 11.4264 6.63227 11.4258C6.23191 11.4253 6.03844 11.23 6.03808 10.8249C6.03745 10.1305 6.0379 9.43597 6.0379 8.7415C6.0379 8.68082 6.0379 8.62014 6.0379 8.55924C5.69037 8.57619 5.49205 8.47559 5.40294 8.2462C5.30952 8.00563 5.40245 7.73897 5.64337 7.61707C6.54132 7.16263 7.44244 6.71446 8.34299 6.26518C8.49327 6.19024 8.64562 6.19607 8.79546 6.27092C9.68573 6.71563 10.577 7.15828 11.4655 7.60649C11.7067 7.72816 11.8078 7.97433 11.7335 8.21193C11.6608 8.44425 11.4485 8.58058 11.1866 8.56269C11.1592 8.56081 11.132 8.55686 11.0827 8.55152ZM10.0736 10.41C10.0736 9.63635 10.076 8.88084 10.0683 8.12542C10.0677 8.07407 10.0015 8.00335 9.94818 7.97581C9.52612 7.7578 9.10132 7.54482 8.67289 7.33951C8.61409 7.31134 8.51897 7.30955 8.4608 7.33749C8.02748 7.54532 7.60085 7.76704 7.16815 7.97635C7.07227 8.02272 7.04383 8.07829 7.04451 8.18121C7.04904 8.87541 7.04666 9.56961 7.04733 10.2639C7.04733 10.312 7.05366 10.3602 7.05702 10.4081C7.39459 10.4081 7.71714 10.4081 8.05605 10.4081C8.05605 10.2444 8.05255 10.0889 8.05681 9.9336C8.06511 9.62644 8.2881 9.40211 8.57373 9.40843C8.85659 9.41471 9.05943 9.63285 9.06423 9.93907C9.06665 10.0938 9.06464 10.2487 9.06464 10.41C9.40848 10.41 9.73085 10.41 10.0736 10.41Z" fill="currentColor"/><path fill-rule="evenodd" clip-rule="evenodd" d="M8.56524 13.6791C8.13443 13.6791 7.70367 13.6802 7.27286 13.6788C6.94794 13.6777 6.71688 13.4711 6.71199 13.1811C6.70701 12.8864 6.94336 12.6709 7.27654 12.6705C8.13815 12.6695 8.99973 12.6693 9.86134 12.6706C10.1886 12.6711 10.4102 12.8782 10.4092 13.1763C10.4082 13.4737 10.1862 13.6775 9.85767 13.6787C9.42686 13.6803 8.99605 13.6791 8.56524 13.6791Z" fill="currentColor"/><path fill-rule="evenodd" clip-rule="evenodd" d="M8.56603 14.6882C8.99679 14.6882 9.42765 14.687 9.85841 14.6885C10.1869 14.6897 10.4086 14.8941 10.4088 15.1918C10.409 15.4899 10.1875 15.6961 9.85971 15.6966C8.99253 15.698 8.12531 15.6982 7.25813 15.6965C6.93984 15.6959 6.70592 15.4735 6.71152 15.1848C6.71709 14.9002 6.94532 14.6902 7.25678 14.6887C7.6932 14.6866 8.12962 14.6882 8.56603 14.6882Z" fill="currentColor"/></svg>