<svg width="20" height="20" viewBox="0 0 20 20" fill="none" xmlns="http://www.w3.org/2000/svg"><path d="M16.6345 10.4819C16.6345 10.2439 16.6333 10.1131 16.6254 10.0192C16.6243 10.0055 16.6225 9.99456 16.6214 9.98589C16.61 9.98419 16.5925 9.98178 16.5682 9.97984C16.4686 9.97193 16.3316 9.97178 16.0891 9.97178H14.4739V16.4516H16.6345V10.4819ZM10.8227 11.6341C11.2486 11.6341 11.5939 11.9808 11.5941 12.4083C11.5941 12.8358 11.2487 13.1825 10.8227 13.1825H9.17734C8.7513 13.1825 8.40592 12.8358 8.40592 12.4083C8.4061 11.9808 8.75141 11.6341 9.17734 11.6341H10.8227ZM10.8227 8.42339C11.2487 8.42339 11.5941 8.77001 11.5941 9.19758C11.5938 9.62495 11.2486 9.97178 10.8227 9.97178H9.17734C8.75144 9.97178 8.40616 9.62495 8.40592 9.19758C8.40592 8.77001 8.7513 8.42339 9.17734 8.42339H10.8227ZM10.8227 5.2117C11.2487 5.2117 11.5941 5.55831 11.5941 5.98589C11.594 6.41336 11.2486 6.76008 10.8227 6.76008H9.17734C8.75137 6.76008 8.40604 6.41336 8.40592 5.98589C8.40592 5.55831 8.7513 5.2117 9.17734 5.2117H10.8227ZM3.36551 16.4516H5.52612V9.97178H3.91094C3.66839 9.97178 3.53136 9.97193 3.43181 9.97984C3.4068 9.98183 3.38902 9.98416 3.37757 9.98589C3.37648 9.99454 3.37569 10.0055 3.37455 10.0192C3.36669 10.1131 3.36551 10.2439 3.36551 10.4819V16.4516ZM12.931 5.34375C12.931 4.88116 12.931 4.58162 12.9119 4.35383C12.8937 4.13571 12.8628 4.0526 12.8406 4.01008C12.7598 3.85534 12.6282 3.72584 12.4619 3.64315C12.4109 3.61775 12.3177 3.58575 12.0893 3.56754C11.8525 3.54869 11.5428 3.54839 11.0698 3.54839H8.93025C8.45722 3.54839 8.14746 3.54869 7.91071 3.56754C7.68231 3.58575 7.58915 3.61775 7.53806 3.64315C7.37179 3.72584 7.24019 3.85534 7.15938 4.01008C7.13717 4.0526 7.10632 4.13571 7.08806 4.35383C7.069 4.58162 7.06897 4.88116 7.06897 5.34375V16.4516H12.931V5.34375ZM14.4739 8.42339H16.0891C16.3071 8.42339 16.5159 8.42255 16.6907 8.43649C16.8738 8.45109 17.0857 8.48504 17.2984 8.59073C17.5966 8.73895 17.8437 8.9778 17.9996 9.27621C18.1117 9.49108 18.1479 9.70574 18.1633 9.88911C18.1778 10.0629 18.1773 10.2702 18.1773 10.4819V16.4516H18.2286C18.6546 16.4516 19 16.7982 19 17.2258C19 17.6534 18.6546 18 18.2286 18H1.77143C1.34538 18 1 17.6534 1 17.2258C1 16.7982 1.34538 16.4516 1.77143 16.4516H1.82266V10.4819C1.82266 10.2702 1.82216 10.0629 1.83672 9.88911C1.8521 9.70574 1.88828 9.49108 2.00045 9.27621L2.06373 9.16734C2.21938 8.91974 2.44069 8.72042 2.70156 8.59073L2.86027 8.52419C3.01829 8.46926 3.17186 8.44745 3.30926 8.43649C3.48411 8.42255 3.6929 8.42339 3.91094 8.42339H5.52612V5.34375C5.52612 4.90724 5.52546 4.53149 5.55123 4.22379C5.57781 3.90644 5.63615 3.59226 5.7933 3.29133C6.02803 2.84197 6.40013 2.48021 6.85301 2.25504C7.15393 2.10544 7.46776 2.04975 7.78817 2.0242C8.10022 1.99932 8.4818 2 8.93025 2H11.0698C11.5182 2 11.8998 1.99932 12.2118 2.0242C12.5322 2.04975 12.8461 2.10544 13.147 2.25504C13.5999 2.48021 13.972 2.84197 14.2067 3.29133C14.3638 3.59226 14.4222 3.90644 14.4488 4.22379C14.4745 4.53149 14.4739 4.90724 14.4739 5.34375V8.42339Z" fill="currentColor"/></svg>