<svg width="20" height="20" viewBox="0 0 20 20" fill="none" xmlns="http://www.w3.org/2000/svg"><path d="M5.06433 15.3691C5.06438 15.7498 5.17792 16.0247 5.35828 16.2041C5.53882 16.3836 5.81571 16.497 6.1991 16.4971C7.85126 16.4972 9.50433 16.4955 11.1571 16.499C11.2909 16.4993 11.4499 16.5157 11.5975 16.5732C11.9739 16.72 12.1835 17.1259 12.1229 17.5039C12.0595 17.8984 11.7416 18.2017 11.3427 18.2432C11.2804 18.2496 11.2181 18.249 11.1766 18.249C9.48804 18.2492 7.79851 18.2509 6.10925 18.248C4.89354 18.246 3.8575 17.5353 3.47156 16.3887C3.36517 16.0725 3.32125 15.7281 3.31921 15.4053C3.30785 13.6143 3.31075 11.8227 3.3114 10.0332C3.29548 10.0488 3.28046 10.0656 3.26453 10.0811C3.03362 10.3054 2.733 10.4258 2.37683 10.3193C1.79962 10.1467 1.56219 9.46739 1.91687 8.97559C1.97907 8.88941 2.05281 8.81514 2.10925 8.75879C4.22729 6.6428 6.34674 4.52863 8.46277 2.41113C8.74207 2.13168 9.06845 1.90314 9.48132 1.79785L9.48523 1.79492C9.49164 1.79106 9.50296 1.78488 9.5155 1.77832L9.57019 1.75H10.4979L10.5468 1.77246C10.5622 1.77942 10.5769 1.78649 10.5878 1.79199C10.6 1.79817 10.6069 1.80168 10.6151 1.80566C10.6241 1.81006 10.6307 1.8125 10.6307 1.8125C10.9851 1.90406 11.2832 2.0892 11.5311 2.34082C13.4527 4.29187 15.3719 6.244 17.2938 8.19434C17.5305 8.43448 17.6569 8.7441 17.5497 9.10938C17.4559 9.42886 17.2226 9.63246 16.911 9.70801C16.6761 9.7647 16.4551 9.72266 16.2645 9.60449L16.1844 9.54883C16.114 9.49479 16.0532 9.42994 16.0106 9.38672C14.1334 7.48017 12.2556 5.57388 10.3788 3.66699C10.2242 3.50995 10.1131 3.46987 10.035 3.46973C9.95637 3.46969 9.8428 3.50982 9.68445 3.66797C8.15711 5.19398 6.62957 6.72122 5.09949 8.24512C5.07734 8.2672 5.0708 8.27984 5.06824 8.28613C5.06556 8.29271 5.06137 8.30705 5.0614 8.33984C5.06454 10.6829 5.06414 13.0264 5.06433 15.3691Z" fill="currentColor"/><path fill-rule="evenodd" clip-rule="evenodd" d="M8.00959 13.7114C8.20364 13.8898 8.35325 14.0341 8.51151 14.1682C8.54896 14.2 8.61534 14.2088 8.66849 14.2091C9.21582 14.212 9.76321 14.2079 10.3105 14.2124C10.6078 14.2149 10.8356 14.3913 10.9162 14.6645C10.9908 14.917 10.9044 15.1999 10.6801 15.3385C10.5703 15.4063 10.4296 15.4553 10.3019 15.4575C9.63482 15.4691 8.96746 15.4629 8.30019 15.4627C8.10693 15.4627 7.9466 15.3861 7.81284 15.2498C7.46216 14.8924 7.10898 14.5375 6.76224 14.1763C6.50028 13.9034 6.49483 13.5539 6.75275 13.2797C7.09939 12.9113 7.45492 12.5513 7.80774 12.1887C7.95503 12.0373 8.13786 11.9858 8.34648 11.9863C9.62886 11.9892 10.9113 11.9854 12.1936 11.9913C12.3274 11.9919 12.379 11.9472 12.4219 11.8259C12.7112 11.0073 13.2804 10.6107 14.1503 10.6102C14.7394 10.6098 15.3285 10.6093 15.9176 10.6103C16.7138 10.6118 17.2876 11.0046 17.5907 11.7366C18.1529 13.0946 18.131 14.4466 17.5555 15.7917C17.2938 16.4033 16.8236 16.7862 16.1607 16.8208C15.3918 16.8609 14.6172 16.8551 13.8484 16.8112C13.175 16.7727 12.7153 16.3724 12.4583 15.7557C12.3566 15.5119 12.2874 15.2529 12.2211 14.9962C12.1326 14.6534 12.3216 14.3331 12.6515 14.2386C12.9806 14.1442 13.3035 14.319 13.4162 14.6573C13.4821 14.8548 13.5374 15.0557 13.6035 15.2531C13.6765 15.4715 13.8349 15.5833 14.063 15.5845C14.7042 15.588 15.3454 15.5888 15.9866 15.5872C16.1902 15.5867 16.3293 15.4826 16.4101 15.2965C16.8642 14.2509 16.8763 13.2054 16.4131 12.1587C16.3281 11.9667 16.1856 11.8638 15.9761 11.8633C15.3349 11.8619 14.6937 11.8612 14.0525 11.8641C13.8431 11.8651 13.6953 11.9643 13.6283 12.1686C13.5666 12.3566 13.5045 12.5444 13.4472 12.7338C13.3432 13.0775 13.1308 13.2397 12.7699 13.2399C11.4041 13.2406 10.0383 13.2412 8.6725 13.2381C8.57046 13.2378 8.49988 13.2679 8.42796 13.3405C8.30712 13.4624 8.17155 13.5695 8.00959 13.7114Z" fill="currentColor"/><path fill-rule="evenodd" clip-rule="evenodd" d="M16.1049 13.7089C16.1055 14.0519 15.82 14.3366 15.4773 14.3349C15.1336 14.3332 14.8523 14.0473 14.856 13.7032C14.8596 13.3655 15.1378 13.0877 15.4751 13.0848C15.8174 13.0819 16.1043 13.3663 16.1049 13.7089Z" fill="currentColor"/></svg>