<svg width="20" height="20" viewBox="0 0 20 20" fill="none" xmlns="http://www.w3.org/2000/svg"><path d="M5.8 2H8.2V3.2H5.8C5.46863 3.2 5.2 3.46863 5.2 3.8V16.2789L9.00152 13.7445C9.60616 13.3414 10.3938 13.3414 10.9985 13.7445L14.8 16.2789V11.8H16V17.4C16 17.6213 15.8782 17.8246 15.6831 17.929C15.488 18.0334 15.2513 18.022 15.0672 17.8993L10.3328 14.743C10.1313 14.6086 9.86872 14.6086 9.6672 14.743L4.93282 17.8993C4.7487 18.022 4.51198 18.0334 4.31689 17.929C4.12179 17.8246 4 17.6213 4 17.4V3.8C4 2.80589 4.80589 2 5.8 2Z" fill="currentColor"/><path d="M14.8008 5.99902C14.8006 4.45318 13.5466 3.2002 12 3.2002C10.4535 3.20024 9.20034 4.45321 9.2002 5.99902C9.2002 7.54494 10.4534 8.79879 12 8.79883C13.5467 8.79883 14.8008 7.54497 14.8008 5.99902ZM16 5.99902C16 6.88665 15.7082 7.7056 15.2188 8.36914L16.4238 9.5752C16.6582 9.80957 16.6581 10.1896 16.4238 10.4238C16.1895 10.6582 15.8095 10.6582 15.5752 10.4238L14.3691 9.21777C13.7056 9.70673 12.8873 9.99902 12 9.99902C9.79088 9.99898 8 8.20795 8 5.99902C8.00015 3.79018 9.79097 2.00004 12 2C14.2091 2 15.9999 3.79015 16 5.99902Z" fill="currentColor"/></svg>