<svg width="20" height="20" viewBox="0 0 25 25" fill="none" xmlns="http://www.w3.org/2000/svg" transform="rotate(0 0 0)"><path d="M7.25 2.23242H10.25V3.73242H7.25C6.83579 3.73242 6.5 4.06821 6.5 4.48242V20.081L11.2519 16.9131C12.0077 16.4092 12.9923 16.4092 13.7481 16.9131L18.5 20.081V14.4824H20V21.4824C20 21.759 19.8478 22.0132 19.6039 22.1437C19.36 22.2742 19.0641 22.2599 18.834 22.1065L12.916 18.1612C12.6641 17.9932 12.3359 17.9932 12.084 18.1612L6.16603 22.1065C5.93588 22.2599 5.63997 22.2742 5.39611 22.1437C5.15224 22.0132 5 21.759 5 21.4824V4.48242C5 3.23978 6.00736 2.23242 7.25 2.23242Z" fill="currentColor"></path><path d="M21.6553 5.44242C21.9482 5.14953 21.9482 4.67466 21.6553 4.38176C21.3625 4.08887 20.8876 4.08887 20.5947 4.38176L15.7341 9.24236L13.6553 7.16364C13.3624 6.87075 12.8876 6.87075 12.5947 7.16365C12.3018 7.45654 12.3018 7.93142 12.5947 8.22431L15.2038 10.8334C15.4967 11.1262 15.9715 11.1262 16.2644 10.8334L21.6553 5.44242Z" fill="currentColor"></path></svg>