<svg width="20" height="20" viewBox="0 0 20 20" fill="none" xmlns="http://www.w3.org/2000/svg"><path d="M5.8 2H8.2V3.2H5.8C5.46863 3.2 5.2 3.46863 5.2 3.8V16.2789L9.00152 13.7445C9.60616 13.3414 10.3938 13.3414 10.9985 13.7445L14.8 16.2789V11.8H16V17.4C16 17.6213 15.8782 17.8246 15.6831 17.929C15.488 18.0334 15.2513 18.022 15.0672 17.8993L10.3328 14.743C10.1313 14.6086 9.86872 14.6086 9.6672 14.743L4.93282 17.8993C4.7487 18.022 4.51198 18.0334 4.31689 17.929C4.12179 17.8246 4 17.6213 4 17.4V3.8C4 2.80589 4.80589 2 5.8 2Z" fill="currentColor"/><path d="M15.3317 3.88271V2.83495C15.3317 2.70237 15.279 2.57522 15.1853 2.48147C15.0915 2.38773 14.9644 2.33506 14.8318 2.33506C14.6992 2.33506 14.5721 2.38773 14.4783 2.48147C14.3846 2.57522 14.3319 2.70237 14.3319 2.83495V3.19787L13.0242 2.3154C12.7218 2.10989 12.3647 2 11.9991 2C11.6335 2 11.2764 2.10989 10.974 2.3154L8.80782 3.77707C8.55894 3.94469 8.35509 4.17094 8.21423 4.43588C8.07336 4.70082 7.99979 4.99633 8 5.29639V8.16708C8 9.17785 8.82248 10 9.83292 10H10.8327C10.9653 10 11.0924 9.94733 11.1862 9.85359C11.2799 9.75984 11.3326 9.63269 11.3326 9.50011V6.83405C11.3326 6.78985 11.3501 6.74747 11.3814 6.71622C11.4126 6.68497 11.455 6.66742 11.4992 6.66742H12.499C12.5432 6.66742 12.5856 6.68497 12.6168 6.71622C12.6481 6.74747 12.6656 6.78985 12.6656 6.83405V9.50011C12.6656 9.63269 12.7183 9.75984 12.812 9.85359C12.9058 9.94733 13.0329 10 13.1655 10H14.1653C15.1757 10 15.9982 9.17785 15.9982 8.16708V5.29639C15.9984 5.02615 15.9388 4.75921 15.8236 4.51477C15.7083 4.27033 15.5403 4.05447 15.3317 3.88271ZM14.9984 8.16708C14.9984 8.62631 14.6248 9.00023 14.1653 9.00023H13.6654V6.83405C13.6654 6.19086 13.1422 5.66764 12.499 5.66764H11.4992C10.856 5.66764 10.3328 6.19086 10.3328 6.83405V9.00023H9.83292C9.61204 8.99996 9.40028 8.9121 9.24409 8.75591C9.0879 8.59972 9.00004 8.38796 8.99978 8.16708V5.29639C8.99978 5.01879 9.13708 4.76085 9.36703 4.60555L11.5332 3.14388C11.6707 3.05054 11.8331 3.00063 11.9993 3.00063C12.1655 3.00063 12.3278 3.05054 12.4653 3.14388L14.6315 4.60588C14.7446 4.68209 14.8372 4.78492 14.9013 4.90532C14.9653 5.02573 14.9988 5.16002 14.9988 5.29639L14.9984 8.16708Z" fill="currentColor"/></svg>