<svg width="20" height="20" viewBox="0 0 24 25" fill="none" xmlns="http://www.w3.org/2000/svg" transform="rotate(0 0 0)"><path d="M11.2474 6.12887C11.6616 6.12887 11.9974 6.46466 11.9974 6.87887V12.5489C11.9974 12.9631 11.6616 13.2989 11.2474 13.2989C10.8332 13.2989 10.4974 12.9631 10.4974 12.5489V6.87887C10.4974 6.46466 10.8332 6.12887 11.2474 6.12887Z" fill="currentColor"></path><path d="M10.3461 15.9755C10.3461 15.4784 10.7491 15.0755 11.2461 15.0755H11.2471C11.7442 15.0755 12.1471 15.4784 12.1471 15.9755C12.1471 16.4725 11.7442 16.8755 11.2471 16.8755H11.2461C10.7491 16.8755 10.3461 16.4725 10.3461 15.9755Z" fill="currentColor"></path><path fill-rule="evenodd" clip-rule="evenodd" d="M2 11.4989C2 6.39126 6.14154 2.25098 11.25 2.25098C16.3585 2.25098 20.5 6.39126 20.5 11.4989C20.5 13.7836 19.6714 15.8747 18.2983 17.4883L21.7791 20.9695C22.072 21.2624 22.072 21.7372 21.7791 22.0301C21.4862 22.323 21.0113 22.323 20.7184 22.0301L17.2372 18.5486C15.6237 19.9197 13.5334 20.7469 11.25 20.7469C6.14154 20.7469 2 16.6066 2 11.4989ZM11.25 3.75098C6.96962 3.75098 3.5 7.22003 3.5 11.4989C3.5 15.7779 6.96962 19.2469 11.25 19.2469C15.5304 19.2469 19 15.7779 19 11.4989C19 7.22003 15.5304 3.75098 11.25 3.75098Z" fill="currentColor"></path></svg>