<svg width="21" height="21" viewBox="0 0 21 21" fill="none" xmlns="http://www.w3.org/2000/svg"><path d="M18.0049 2.31102C17.5883 1.88518 16.9716 1.72768 16.3966 1.89435L2.98828 5.76852C2.38161 5.93685 1.95161 6.41768 1.83578 7.02768C1.71745 7.64935 2.13078 8.43935 2.67078 8.76935L6.86328 11.3294C7.29328 11.5927 7.84828 11.5269 8.20411 11.1702L13.0049 6.36935C13.2466 6.11852 13.6466 6.11852 13.8883 6.36935C14.1299 6.61018 14.1299 7.00268 13.8883 7.25268L9.07911 12.0535C8.72245 12.4102 8.65578 12.9635 8.91828 13.3944L11.4799 17.6027C11.7799 18.1019 12.2966 18.386 12.8633 18.386C12.9299 18.386 13.0049 18.386 13.0716 18.3769C13.7216 18.2944 14.2383 17.8519 14.4299 17.2269L18.4049 3.91935C18.5799 3.35268 18.4216 2.73602 18.0049 2.31102Z" fill="currentColor"/><path opacity="0.4" d="M8.02541 16.1146C8.26875 16.3587 8.26875 16.7546 8.02541 16.9987L6.88708 18.1362C6.76541 18.2587 6.60541 18.3196 6.44541 18.3196C6.28541 18.3196 6.12541 18.2587 6.00374 18.1362C5.75958 17.8921 5.75958 17.4971 6.00374 17.2529L7.14124 16.1146C7.38541 15.8712 7.78125 15.8712 8.02541 16.1146ZM7.37233 12.9579C7.61566 13.2021 7.61566 13.5979 7.37233 13.8421L6.23399 14.9796C6.11233 15.1021 5.95233 15.1629 5.79233 15.1629C5.63233 15.1629 5.47233 15.1021 5.35066 14.9796C5.1065 14.7354 5.1065 14.3404 5.35066 14.0962L6.48816 12.9579C6.73233 12.7146 7.12816 12.7146 7.37233 12.9579ZM4.23799 11.9642C4.48133 12.2084 4.48133 12.6042 4.23799 12.8484L3.09966 13.9859C2.97799 14.1084 2.81799 14.1692 2.65799 14.1692C2.49799 14.1692 2.33799 14.1084 2.21633 13.9859C1.97216 13.7417 1.97216 13.3467 2.21633 13.1026L3.35383 11.9642C3.59799 11.7209 3.99383 11.7209 4.23799 11.9642Z" fill="currentColor"/></svg>