<svg width="20" height="20" viewBox="0 0 20 20" fill="none" xmlns="http://www.w3.org/2000/svg"><path d="M13.3309 18H6.66884C6.28339 17.9998 5.90254 17.9163 5.55235 17.7552C5.20216 17.5941 4.8909 17.3593 4.63989 17.0667C4.39241 16.7805 4.20967 16.4442 4.10417 16.0809C3.99868 15.7174 3.97292 15.3356 4.02867 14.9613C4.38654 13.0117 5.42639 11.253 6.96212 10C5.42636 8.74656 4.38674 6.98739 4.02933 5.03733C3.9737 4.66334 3.99945 4.28175 4.10482 3.91863C4.21019 3.5555 4.39271 3.21942 4.63989 2.93333C4.8909 2.64076 5.20216 2.4059 5.55235 2.24481C5.90254 2.08372 6.28339 2.00021 6.66884 2H13.3309C13.7164 2.00034 14.0972 2.08391 14.4474 2.24499C14.7975 2.40607 15.1088 2.64086 15.3599 2.93333C15.6071 3.2193 15.7897 3.55523 15.8953 3.91821C16.001 4.28119 16.027 4.66269 15.9718 5.03667C15.6107 6.9873 14.5688 8.74629 13.0317 10C14.5679 11.2548 15.6087 13.0145 15.9685 14.9653C16.0237 15.3394 15.9977 15.721 15.8921 16.0841C15.7865 16.4472 15.6039 16.7833 15.3566 17.0693C15.1056 17.3609 14.7947 17.5949 14.4452 17.7555C14.0957 17.9161 13.7156 17.9995 13.3309 18ZM13.3309 3.33333H6.66884C6.4755 3.33322 6.28441 3.37485 6.10864 3.45539C5.93286 3.53593 5.77655 3.65348 5.65037 3.8C5.52716 3.94029 5.43611 4.10583 5.3836 4.28502C5.3311 4.46421 5.31841 4.65272 5.34642 4.83733C5.59704 6.504 6.62885 8.064 8.41254 9.47536C8.49136 9.53776 8.55502 9.61717 8.5988 9.70768C8.64258 9.79819 8.6653 9.89744 8.6653 9.99803C8.6653 10.0986 8.64258 10.1978 8.5988 10.2883C8.55502 10.3788 8.49136 10.4582 8.41254 10.5206C6.62885 11.9333 5.59904 13.4947 5.34642 15.1606C5.31811 15.3456 5.33065 15.5345 5.38316 15.714C5.43567 15.8936 5.52688 16.0595 5.65037 16.2C5.77655 16.3465 5.93286 16.4641 6.10864 16.5446C6.28441 16.6252 6.4755 16.6668 6.66884 16.6667H13.3309C13.5243 16.6668 13.7154 16.6252 13.8912 16.5447C14.067 16.4641 14.2233 16.3466 14.3494 16.2C14.4726 16.0599 14.5636 15.8947 14.6161 15.7157C14.6687 15.5367 14.6814 15.3484 14.6534 15.164C14.4048 13.506 13.3736 11.9446 11.5873 10.5227C11.5089 10.4602 11.4457 10.3809 11.4022 10.2907C11.3587 10.2004 11.3362 10.1015 11.3362 10.0013C11.3362 9.90117 11.3587 9.80224 11.4022 9.712C11.4457 9.62176 11.5089 9.54245 11.5873 9.48C13.3743 8.05803 14.4054 6.49667 14.6534 4.838C14.6813 4.65303 14.6682 4.4642 14.6151 4.28483C14.562 4.10547 14.4702 3.93996 14.3461 3.8C14.2203 3.65387 14.0645 3.53655 13.8893 3.45602C13.7142 3.37549 13.5238 3.33365 13.3309 3.33333ZM12.4518 15.3333H7.54401C7.43496 15.3333 7.32757 15.3065 7.23128 15.2553C7.135 15.204 7.05275 15.13 6.99175 15.0395C6.93076 14.9491 6.89288 14.8451 6.88143 14.7366C6.87 14.6281 6.88534 14.5185 6.92613 14.4173C7.44808 13.2901 8.24335 12.3111 9.2397 11.5693L9.58497 11.2947C9.70292 11.2009 9.84918 11.1498 9.99988 11.1498C10.1506 11.1498 10.2969 11.2009 10.4148 11.2947L10.7541 11.5653C11.749 12.31 12.5443 13.2893 13.069 14.416C13.11 14.5172 13.1256 14.6269 13.1143 14.7355C13.1031 14.8441 13.0653 14.9483 13.0043 15.0389C12.9434 15.1294 12.8611 15.2037 12.7648 15.255C12.6684 15.3064 12.5609 15.3333 12.4518 15.3333ZM8.6878 14H11.306C10.9257 13.5042 10.4866 13.0565 9.99822 12.6667C9.50775 13.055 9.06757 13.5029 8.6878 14Z" fill="currentColor"/></svg>