<svg width="20" height="20" viewBox="0 0 25 25" fill="none" xmlns="http://www.w3.org/2000/svg" transform="rotate(0 0 0)"><path fill-rule="evenodd" clip-rule="evenodd" d="M14.0898 5.56981C14.0898 3.72447 15.5858 2.22852 17.4311 2.22852C19.2765 2.22852 20.7724 3.72447 20.7724 5.56981C20.7724 7.41516 19.2765 8.91111 17.4311 8.91111C16.5302 8.91111 15.7125 8.5545 15.1115 7.97473L10.3318 11.0869C10.4627 11.4449 10.5342 11.8315 10.5342 12.2349C10.5342 12.6375 10.4629 13.0235 10.3324 13.3809L15.1059 16.4891C15.7074 15.9062 16.5274 15.5474 17.4311 15.5474C19.2765 15.5474 20.7724 17.0433 20.7724 18.8887C20.7724 20.734 19.2765 22.23 17.4311 22.23C15.5858 22.23 14.0898 20.734 14.0898 18.8887C14.0898 18.4879 14.1604 18.1037 14.2897 17.7476L9.51422 14.6381C8.91311 15.2189 8.09471 15.5762 7.19286 15.5762C5.34751 15.5762 3.85156 14.0802 3.85156 12.2349C3.85156 10.3895 5.34751 8.89355 7.19286 8.89355C8.094 8.89355 8.91181 9.25029 9.5128 9.83023L14.2924 6.71813C14.1614 6.36005 14.0898 5.97328 14.0898 5.56981ZM17.4311 3.72852C16.4142 3.72852 15.5898 4.55289 15.5898 5.56981C15.5898 6.58674 16.4142 7.41111 17.4311 7.41111C18.4481 7.41111 19.2724 6.58674 19.2724 5.56981C19.2724 4.55289 18.4481 3.72852 17.4311 3.72852ZM7.19286 10.3936C6.17594 10.3936 5.35156 11.2179 5.35156 12.2349C5.35156 13.2518 6.17594 14.0762 7.19286 14.0762C8.20978 14.0762 9.03416 13.2518 9.03416 12.2349C9.03416 11.2179 8.20978 10.3936 7.19286 10.3936ZM17.4311 17.0474C16.4142 17.0474 15.5898 17.8717 15.5898 18.8887C15.5898 19.9056 16.4142 20.73 17.4311 20.73C18.4481 20.73 19.2724 19.9056 19.2724 18.8887C19.2724 17.8717 18.4481 17.0474 17.4311 17.0474Z" fill="currentColor"></path></svg>