<svg width="20" height="20" viewBox="0 0 20 20" fill="none" xmlns="http://www.w3.org/2000/svg"><path fill-rule="evenodd" clip-rule="evenodd" d="M7.03902 4.02747C6.70797 4.12487 6.61409 4.56325 6.87591 4.78921C7.06205 4.94986 7.31657 4.94407 7.49597 4.77511C7.74357 4.54191 7.63308 4.11963 7.29987 4.02568C7.17717 3.9911 7.16238 3.99119 7.03902 4.02747ZM9.85388 4.02731C9.67749 4.07951 9.41238 4.43598 9.13324 4.9963C8.92752 5.40921 8.79984 5.78027 8.70937 6.22804C8.67175 6.41434 8.63726 6.57102 8.63275 6.57623C8.62823 6.58146 8.54901 6.53829 8.45666 6.48033C7.86455 6.10862 7.08645 5.87798 6.37827 5.86422C6.05922 5.85803 5.98742 5.88596 5.84733 6.07069C5.78637 6.15106 5.7828 6.19599 5.78368 6.86941C5.78446 7.43583 5.79624 7.63694 5.84094 7.84471C5.96214 8.40814 6.23987 8.96276 6.58865 9.33789L6.76805 9.53084L5.80551 9.54726C4.74912 9.56527 4.59443 9.58522 4.09923 9.76752C3.64868 9.93338 3.35046 10.1279 2.96343 10.5084C2.46613 10.9972 2.19739 11.4793 2.05364 12.1404C1.98212 12.4694 1.98212 13.074 2.05364 13.403C2.19739 14.0641 2.46613 14.5462 2.96343 15.035C3.35046 15.4155 3.64868 15.61 4.09923 15.7758C4.71882 16.0039 4.1777 15.9857 10.6852 15.9974C14.6113 16.0044 16.6083 15.9973 16.7738 15.9758C18.0186 15.814 18.4373 14.2712 17.4408 13.5185L17.3518 13.4512L17.4917 13.2731C17.684 13.0283 17.7833 12.8505 17.8745 12.5869C18.1647 11.7481 17.9434 10.8404 17.2965 10.2158C17.0201 9.94896 16.7949 9.80897 16.4472 9.68804C16.0767 9.55914 15.7994 9.53836 14.4502 9.53836H13.217L13.3999 9.34165C13.7522 8.96276 14.0295 8.41026 14.1511 7.84471C14.1958 7.63694 14.2076 7.43583 14.2084 6.86941C14.2093 6.19599 14.2057 6.15106 14.1447 6.07069C14.0047 5.88596 13.9329 5.85803 13.6138 5.86422C12.9056 5.87798 12.1275 6.10862 11.5354 6.48033C11.4431 6.53829 11.363 6.58121 11.3574 6.57573C11.3518 6.57022 11.3173 6.42047 11.2807 6.24292C11.1889 5.79736 11.0276 5.33567 10.8235 4.93471C10.6328 4.56008 10.3674 4.16878 10.2466 4.08428C10.1482 4.0154 9.97768 3.99067 9.85388 4.02731ZM12.6776 4.02747C12.3466 4.12487 12.2527 4.56325 12.5145 4.78921C12.7007 4.94986 12.9552 4.94407 13.1346 4.77511C13.3822 4.54191 13.2717 4.11963 12.9385 4.02568C12.8158 3.9911 12.801 3.99119 12.6776 4.02747ZM10.1158 5.5633C10.2256 5.80472 10.3504 6.21745 10.4098 6.53598C10.4688 6.85226 10.4596 7.6759 10.3933 8.00428C10.309 8.42221 10.0622 9.10725 9.99594 9.10725C9.92333 9.10725 9.66499 8.36644 9.58251 7.92169C9.53095 7.64375 9.53095 6.81392 9.58251 6.53598C9.66505 6.09095 9.92336 5.35042 9.99604 5.35042C10.0087 5.35042 10.0625 5.44622 10.1158 5.5633ZM7.04977 6.85888C7.56229 6.98754 8.04429 7.24054 8.413 7.57446C8.63409 7.77474 8.64236 7.7874 8.66401 7.95938C8.71463 8.36118 8.85203 8.80464 9.14273 9.5047C9.15776 9.54088 9.11212 9.54488 8.86571 9.52909C8.52339 9.5071 8.27773 9.43868 7.9693 9.27935C7.50768 9.04089 7.17942 8.70641 6.93912 8.22963C6.76486 7.88388 6.7081 7.6217 6.70738 7.15955C6.70675 6.74233 6.67975 6.76604 7.04977 6.85888ZM13.2766 7.25193C13.2582 7.75956 13.2154 7.93506 13.0218 8.29734C12.7284 8.84602 12.2148 9.26657 11.6119 9.45164C11.3587 9.52936 10.8231 9.56669 10.8505 9.5047C11.1167 8.90256 11.2807 8.37968 11.3279 7.98328C11.347 7.82257 11.3668 7.78121 11.4796 7.66549C11.7313 7.40735 12.1471 7.1407 12.54 6.98541C12.7471 6.90359 13.1106 6.80453 13.2186 6.8005L13.293 6.79772L13.2766 7.25193ZM16.2652 10.5921C16.5714 10.7408 16.7922 10.9579 16.9435 11.2589C17.0577 11.486 17.06 11.4976 17.06 11.8479C17.06 12.1982 17.0577 12.2098 16.9435 12.4369C16.7922 12.7379 16.5714 12.9549 16.2652 13.1037L16.0295 13.2182L10.5772 13.226C5.17878 13.2337 5.1239 13.2332 5.02281 13.1724C4.7291 12.9958 4.71914 12.5646 5.00455 12.3807C5.08659 12.3279 5.35235 12.3244 10.4544 12.3098C15.8107 12.2944 15.8181 12.2943 15.9045 12.2309C16.0598 12.1169 16.1166 12.0144 16.1166 11.8479C16.1166 11.6814 16.0598 11.5788 15.9045 11.4649C15.8181 11.4014 15.8145 11.4014 10.5811 11.3925C7.12269 11.3867 5.26082 11.3944 5.09868 11.4153C4.46925 11.4965 3.98793 11.9537 3.88863 12.5647C3.76847 13.3042 4.30611 14.0176 5.06485 14.1254C5.20287 14.145 7.36262 14.1564 11.0141 14.1569C16.6785 14.1576 16.7479 14.1584 16.8488 14.2188C17.1514 14.4002 17.1514 14.8379 16.8488 15.0201C16.7476 15.081 16.695 15.0815 10.7635 15.0733C4.78195 15.065 4.78025 15.065 4.58976 15.0005C3.92788 14.7764 3.44904 14.3683 3.14872 13.7725C2.98122 13.4402 2.91754 13.1644 2.91754 12.7717C2.91754 12.3828 2.98119 12.106 3.14769 11.7709C3.39488 11.2734 3.74124 10.9328 4.24778 10.6893C4.74448 10.4505 4.29555 10.4661 10.4832 10.4721L16.0295 10.4776L16.2652 10.5921Z" fill="currentColor"/></svg>
