<svg width="20" height="20" viewBox="0 0 20 20" fill="none" xmlns="http://www.w3.org/2000/svg"><path d="M17.8047 16.8507L15.3467 14.3913L17.138 12.6C17.2173 12.5207 17.2753 12.4227 17.3066 12.315C17.338 12.2074 17.3417 12.0935 17.3173 11.9841C17.293 11.8746 17.2414 11.773 17.1675 11.6887C17.0934 11.6045 16.9994 11.5403 16.894 11.502L11.0733 9.39397C10.841 9.31339 10.5905 9.30021 10.3509 9.35589C10.1113 9.41157 9.89237 9.53387 9.71936 9.70864C9.54357 9.88336 9.42112 10.1044 9.36624 10.346C9.31136 10.5876 9.32629 10.8399 9.40933 11.0733L11.5133 16.8827C11.5515 16.9883 11.6157 17.0825 11.6999 17.1566C11.7842 17.2308 11.8859 17.2825 11.9954 17.3069C12.105 17.3313 12.219 17.3276 12.3268 17.2963C12.4346 17.2649 12.5326 17.2068 12.612 17.1274L14.4047 15.3347L16.8627 17.794C16.9246 17.8559 16.9981 17.905 17.079 17.9385C17.1599 17.9719 17.2467 17.9892 17.3342 17.9891C17.4218 17.9891 17.5085 17.9718 17.5894 17.9383C17.6703 17.9047 17.7438 17.8556 17.8057 17.7937C17.8676 17.7317 17.9166 17.6582 17.9501 17.5773C17.9836 17.4964 18.0009 17.4097 18.0008 17.3221C18.0007 17.2345 17.9835 17.1478 17.95 17.0669C17.9164 16.9861 17.8666 16.9126 17.8047 16.8507ZM12.41 15.4427L10.6813 10.6693L15.4533 12.398L12.41 15.4427ZM9.33333 14.666C9.33333 14.8428 9.26309 15.0124 9.13808 15.1374C9.01307 15.2625 8.84347 15.3327 8.66667 15.3327C5.038 15.3373 1.99734 12.3673 2 8.66667C2 4.99067 4.99067 2 8.66667 2C12.3427 2 15.3333 4.99067 15.3333 8.66667C15.3333 8.84347 15.2631 9.01307 15.1381 9.13808C15.0131 9.26309 14.8435 9.33333 14.6667 9.33333C14.4899 9.33333 14.3203 9.26309 14.1953 9.13808C14.0702 9.01307 14 8.84347 14 8.66667C14 5.726 11.6074 3.33333 8.66667 3.33333C5.726 3.33333 3.33333 5.726 3.33333 8.66667C3.33333 10.1693 3.96067 11.5267 4.964 12.4966C5.35595 11.5288 6.11045 10.7523 7.06667 10.3326C7.22723 10.2701 7.40576 10.2721 7.56496 10.3381C7.72411 10.4042 7.85152 10.5293 7.92053 10.6872C7.98949 10.8451 7.99477 11.0236 7.93515 11.1853C7.87552 11.347 7.75568 11.4794 7.60069 11.5547C7.2303 11.7167 6.90165 11.9609 6.63958 12.2687C6.37751 12.5765 6.1889 12.9398 6.088 13.3314C6.8768 13.7702 7.76464 14.0004 8.66736 14C8.84416 14 9.01371 14.0702 9.13872 14.1953C9.26379 14.3203 9.33403 14.4899 9.33403 14.6667L9.33333 14.666ZM6.33333 7C6.33333 8.28667 7.38 9.33333 8.66667 9.33333C9.95333 9.33333 11 8.28667 11 7C11 5.71333 9.95333 4.66667 8.66667 4.66667C7.38 4.66667 6.33333 5.71333 6.33333 7ZM9.66667 7C9.66667 7.55131 9.21803 8 8.66667 8C8.11536 8 7.66667 7.55131 7.66667 7C7.66667 6.44867 8.11536 6 8.66667 6C9.21803 6 9.66667 6.44867 9.66667 7Z" fill="currentColor"/></svg>