<svg width="20" height="20" viewBox="0 0 20 20" fill="none" xmlns="http://www.w3.org/2000/svg"><path d="M17.4997 10.3532V9.1665C17.4997 7.17738 16.7096 5.26973 15.3031 3.8632C13.8966 2.45669 11.9889 1.6665 9.99975 1.6665C8.01063 1.6665 6.10298 2.45669 4.69646 3.8632C3.28993 5.26973 2.49976 7.17738 2.49976 9.1665V10.3532C1.62572 10.738 0.910425 11.4114 0.473607 12.2608C0.0367908 13.11 -0.095027 14.0835 0.10022 15.0184C0.295467 15.9532 0.805931 16.7926 1.54615 17.3961C2.28637 17.9995 3.21141 18.3303 4.16642 18.3332C4.60845 18.3332 5.03238 18.1576 5.34493 17.845C5.65749 17.5324 5.83309 17.1085 5.83309 16.6665V11.6665C5.83309 11.2245 5.65749 10.8006 5.34493 10.488C5.03238 10.1754 4.60845 9.99982 4.16642 9.99982V9.1665C4.16642 7.61944 4.78101 6.13568 5.87497 5.04172C6.96894 3.94775 8.45269 3.33317 9.99975 3.33317C11.5469 3.33317 13.0306 3.94775 14.1246 5.04172C15.2185 6.13568 15.8331 7.61944 15.8331 9.1665V9.99982C15.3911 9.99982 14.9671 10.1754 14.6546 10.488C14.342 10.8006 14.1664 11.2245 14.1664 11.6665V16.6665H11.6664C11.4454 16.6665 11.2334 16.7543 11.0772 16.9106C10.9209 17.0669 10.8331 17.2788 10.8331 17.4998C10.8331 17.7209 10.9209 17.9328 11.0772 18.0891C11.2334 18.2454 11.4454 18.3332 11.6664 18.3332H15.8331C16.7881 18.3303 17.7131 17.9995 18.4534 17.3961C19.1936 16.7926 19.7041 15.9532 19.8993 15.0184C20.0946 14.0835 19.9627 13.11 19.5259 12.2608C19.0891 11.4114 18.3738 10.738 17.4997 10.3532ZM4.16642 16.6665C3.50338 16.6665 2.86749 16.4031 2.39866 15.9343C1.92981 15.4654 1.66642 14.8296 1.66642 14.1665C1.66642 13.5034 1.92981 12.8676 2.39866 12.3988C2.86749 11.9299 3.50338 11.6665 4.16642 11.6665V16.6665ZM15.8331 16.6665V11.6665C16.4961 11.6665 17.132 11.9299 17.6009 12.3988C18.0697 12.8676 18.3331 13.5034 18.3331 14.1665C18.3331 14.8296 18.0697 15.4654 17.6009 15.9343C17.132 16.4031 16.4961 16.6665 15.8331 16.6665Z" fill="currentColor"/></svg>