<svg width="20" height="20" viewBox="0 0 20 20" fill="none" xmlns="http://www.w3.org/2000/svg"><path d="M3.33333 4C3.33333 3.46957 3.54405 2.96086 3.91912 2.58579C4.29419 2.21071 4.8029 2 5.33333 2C5.86377 2 6.37247 2.21071 6.74755 2.58579C7.12262 2.96086 7.33333 3.46957 7.33333 4C7.33333 4.53043 7.12262 5.03914 6.74755 5.41421C6.37247 5.78929 5.86377 6 5.33333 6C4.8029 6 4.29419 5.78929 3.91912 5.41421C3.54405 5.03914 3.33333 4.53043 3.33333 4ZM18 14C18 15.0609 17.5786 16.0783 16.8284 16.8284C16.0783 17.5786 15.0609 18 14 18C12.9391 18 11.9217 17.5786 11.1716 16.8284C10.4214 16.0783 10 15.0609 10 14C10 12.9391 10.4214 11.9217 11.1716 11.1716C11.9217 10.4214 12.9391 10 14 10C15.0609 10 16.0783 10.4214 16.8284 11.1716C17.5786 11.9217 18 12.9391 18 14ZM16.4747 12.8653C16.414 12.8022 16.3416 12.7516 16.2614 12.7164C16.1812 12.6812 16.0949 12.6622 16.0073 12.6604C15.9198 12.6586 15.8328 12.6741 15.7512 12.7059C15.6697 12.7378 15.5952 12.7854 15.532 12.846L13.7233 14.5953C13.6769 14.6409 13.6146 14.6665 13.5496 14.6668C13.4846 14.667 13.4221 14.6419 13.3753 14.5967L12.4727 13.7093C12.3464 13.5856 12.1762 13.517 11.9994 13.5188C11.8226 13.5205 11.6538 13.5924 11.53 13.7187C11.4062 13.8449 11.3377 14.0151 11.3394 14.1919C11.3412 14.3687 11.4131 14.5376 11.5393 14.6613L12.442 15.5493C12.7487 15.8487 13.15 15.9987 13.5507 15.9987C13.9513 15.9987 14.3513 15.8487 14.6527 15.5513L16.4547 13.8087C16.5178 13.748 16.5684 13.6756 16.6036 13.5954C16.6388 13.5152 16.6578 13.4289 16.6596 13.3413C16.6614 13.2538 16.6459 13.1668 16.6141 13.0852C16.5822 13.0037 16.5346 12.9292 16.474 12.866L16.4747 12.8653ZM12 6C12.5304 6 13.0391 5.78929 13.4142 5.41421C13.7893 5.03914 14 4.53043 14 4C14 3.46957 13.7893 2.96086 13.4142 2.58579C13.0391 2.21071 12.5304 2 12 2C11.4696 2 10.9609 2.21071 10.5858 2.58579C10.2107 2.96086 10 3.46957 10 4C10 4.53043 10.2107 5.03914 10.5858 5.41421C10.9609 5.78929 11.4696 6 12 6ZM6.66667 9.33333C6.66667 10.436 7.564 11.3333 8.66667 11.3333C9.76933 11.3333 10.6667 10.436 10.6667 9.33333C10.6667 8.23067 9.76933 7.33333 8.66667 7.33333C7.564 7.33333 6.66667 8.23067 6.66667 9.33333ZM5.96867 7.41733C5.93652 7.2898 5.87939 7.16991 5.8006 7.0646C5.72181 6.9593 5.62291 6.87066 5.50964 6.80382C5.39637 6.73699 5.27096 6.69328 5.14069 6.67523C5.01041 6.65718 4.87784 6.66515 4.75067 6.69867C3.15667 7.10867 2 8.63733 2 10.3333C2 10.5986 2.10536 10.8529 2.29289 11.0404C2.48043 11.228 2.73478 11.3333 3 11.3333C3.26522 11.3333 3.51957 11.228 3.70711 11.0404C3.89464 10.8529 4 10.5986 4 10.3333C4 9.54867 4.53733 8.81867 5.24933 8.63467C5.50613 8.56859 5.72616 8.40323 5.86106 8.17494C5.99595 7.94666 6.03466 7.67415 5.96867 7.41733ZM11.3653 7.41733C11.3326 7.54454 11.3252 7.67696 11.3436 7.80703C11.362 7.93709 11.4059 8.06225 11.4727 8.17536C11.5395 8.28847 11.6279 8.38731 11.7329 8.46624C11.8379 8.54516 11.9574 8.60262 12.0847 8.63533C12.3413 8.70133 12.5853 8.84267 12.7893 9.04333C12.8827 9.13561 12.9934 9.20858 13.115 9.25809C13.2367 9.30759 13.3668 9.33265 13.4981 9.33185C13.6294 9.33104 13.7593 9.30439 13.8803 9.2534C14.0013 9.2024 14.1111 9.12808 14.2033 9.03467C14.2956 8.94125 14.3686 8.83058 14.4181 8.70896C14.4676 8.58735 14.4927 8.45717 14.4918 8.32587C14.491 8.19457 14.4644 8.06471 14.4134 7.94371C14.3624 7.82271 14.2881 7.71294 14.1947 7.62067C13.7484 7.17662 13.1928 6.85833 12.584 6.698C12.4568 6.66522 12.3244 6.65783 12.1943 6.67625C12.0642 6.69466 11.9391 6.73852 11.826 6.80532C11.7129 6.87213 11.614 6.96056 11.5351 7.06557C11.4562 7.17058 11.398 7.29011 11.3653 7.41733ZM7.418 12.032C5.824 12.442 4.66733 13.9707 4.66733 15.6667C4.66733 15.9319 4.77269 16.1862 4.96023 16.3738C5.14776 16.5613 5.40212 16.6667 5.66733 16.6667C5.93255 16.6667 6.1869 16.5613 6.37444 16.3738C6.56198 16.1862 6.66733 15.9319 6.66733 15.6667C6.66733 14.882 7.20467 14.152 7.91667 13.968C8.04705 13.9383 8.17017 13.8828 8.27872 13.8048C8.38728 13.7267 8.47908 13.6277 8.54869 13.5135C8.6183 13.3993 8.66431 13.2723 8.68399 13.1401C8.70367 13.0078 8.69662 12.873 8.66327 12.7435C8.62991 12.614 8.57093 12.4925 8.4898 12.3862C8.40868 12.2799 8.30706 12.191 8.19096 12.1246C8.07485 12.0583 7.94663 12.0159 7.81386 12C7.6811 11.9841 7.54649 11.995 7.418 12.032Z" fill="currentColor"/></svg>