<svg width="20" height="20" viewBox="0 0 20 20" fill="none" xmlns="http://www.w3.org/2000/svg"><path d="M11.82 16.0392C11.82 16.5292 11.6254 16.9991 11.2789 17.3455C10.9324 17.692 10.4625 17.8867 9.9725 17.8867C9.48251 17.8867 9.01259 17.692 8.66612 17.3455C8.31965 16.9991 8.125 16.5292 8.125 16.0392C8.125 15.5492 8.31965 15.0793 8.66612 14.7328C9.01259 14.3863 9.48251 14.1917 9.9725 14.1917C10.4625 14.1917 10.9324 14.3863 11.2789 14.7328C11.6254 15.0793 11.82 15.5492 11.82 16.0392ZM11.82 9.88083C11.82 10.3708 11.6254 10.8407 11.2789 11.1872C10.9324 11.5337 10.4625 11.7283 9.9725 11.7283C9.48251 11.7283 9.01259 11.5337 8.66612 11.1872C8.31965 10.8407 8.125 10.3708 8.125 9.88083C8.125 9.39085 8.31965 8.92093 8.66612 8.57445C9.01259 8.22798 9.48251 8.03333 9.9725 8.03333C10.4625 8.03333 10.9324 8.22798 11.2789 8.57445C11.6254 8.92093 11.82 9.39085 11.82 9.88083ZM11.82 3.7225C11.82 4.21249 11.6254 4.68241 11.2789 5.02888C10.9324 5.37535 10.4625 5.57 9.9725 5.57C9.48251 5.57 9.01259 5.37535 8.66612 5.02888C8.31965 4.68241 8.125 4.21249 8.125 3.7225C8.125 3.23251 8.31965 2.76259 8.66612 2.41612C9.01259 2.06965 9.48251 1.875 9.9725 1.875C10.4625 1.875 10.9324 2.06965 11.2789 2.41612C11.6254 2.76259 11.82 3.23251 11.82 3.7225Z" fill="currentColor"/></svg>