<svg width="20" height="20" viewBox="0 0 20 20" fill="none" xmlns="http://www.w3.org/2000/svg"><path d="M10.0498 5.2002C10.0498 4.29771 10.3529 3.46592 10.8623 2.80078C10.5797 2.76733 10.292 2.75 10 2.75C6.59802 2.75 3.74449 5.09344 2.96289 8.25391L6.40723 7.94727L6.57324 7.94531C6.90383 7.96376 7.21117 8.12389 7.41504 8.38477L7.50781 8.52344L8.94824 11.0488L11.1523 12.3086C11.779 12.6669 11.9239 13.5076 11.4541 14.0557L9.5498 16.2773V17.2344C9.69874 17.2435 9.84877 17.25 10 17.25C14.0041 17.25 17.25 14.0041 17.25 10C17.25 9.27463 17.1402 8.57591 16.9424 7.91602C16.893 7.98419 16.8452 8.05351 16.7939 8.12012C16.1557 8.94892 15.3054 9.75519 14.5303 10.5303C14.2374 10.8232 13.7626 10.8232 13.4697 10.5303C12.6946 9.75519 11.8443 8.94892 11.2061 8.12012C10.5604 7.28179 10.0499 6.32153 10.0498 5.2002ZM14 4.0498C14.5247 4.0498 14.9502 4.47533 14.9502 5C14.9502 5.52467 14.5247 5.9502 14 5.9502C13.4753 5.9502 13.0498 5.52467 13.0498 5C13.0498 4.47533 13.4753 4.0498 14 4.0498ZM2.75 10C2.75 13.3281 4.99336 16.1295 8.0498 16.9814V16.1475C8.04992 15.8731 8.14861 15.6077 8.32715 15.3994L10.0391 13.4004L8.12305 12.3057C7.94456 12.2037 7.79622 12.0555 7.69434 11.877L6.31543 9.46094L2.75488 9.77832C2.75267 9.85196 2.75 9.92583 2.75 10ZM11.5498 5.2002C11.5499 5.84601 11.8403 6.48536 12.3945 7.20508C12.8326 7.77394 13.3867 8.32938 14 8.93848C14.6133 8.32938 15.1674 7.77394 15.6055 7.20508C16.1597 6.48536 16.4501 5.84601 16.4502 5.2002C16.4502 3.8471 15.3531 2.75 14 2.75C12.6469 2.75 11.5498 3.8471 11.5498 5.2002ZM17.9502 5.2002C17.9502 5.51414 17.9077 5.81491 17.8359 6.10449C18.4206 7.27847 18.75 8.60162 18.75 10C18.75 14.8325 14.8325 18.75 10 18.75C5.16751 18.75 1.25 14.8325 1.25 10C1.25 9.67317 1.26978 9.35073 1.30469 9.0332C1.30606 9.0144 1.30877 8.99597 1.31152 8.97754C1.81801 4.62694 5.51348 1.25 10 1.25C10.8334 1.25 11.6401 1.36854 12.4053 1.58691C12.8932 1.37125 13.4323 1.25 14 1.25C16.1815 1.25 17.9502 3.01867 17.9502 5.2002Z" fill="currentColor"/></svg>