<svg width="20" height="20" viewBox="0 0 20 20" fill="none" xmlns="http://www.w3.org/2000/svg"><path fill-rule="evenodd" clip-rule="evenodd" d="M18 16.75C18 17.1667 18 17.5834 18 18C12.6667 18 7.33333 18 2 18C2 17.5834 2 17.1667 2 16.75C2.37241 16.75 2.74485 16.75 3.11705 16.75C3.11705 13.7794 3.11705 10.8309 3.11705 7.86059C2.9215 7.95233 2.74052 8.03719 2.55096 8.12614C2.37045 7.74757 2.19497 7.37949 2.01646 7.00513C5.44039 5.20844 9.03993 3.73006 12.5 2C12.5189 2.05274 13 3 13 3C13 3 13 3 12.01 3.60673C11.9027 3.65427 11.8717 3.71388 11.8721 3.82891C11.8765 5.16197 11.8749 6.49508 11.8749 7.82818C11.8749 7.88297 11.8749 7.93779 11.8749 8.00395C12.7185 8.00395 13.5392 8.00395 14.3771 8.00395C14.3771 8.83991 14.3771 9.66447 14.3771 10.5C15.5961 10.5 16.798 10.5 18 10.5C18 10.9167 18 11.3334 18 11.75C17.6278 11.75 17.2556 11.75 16.8848 11.75C16.8848 13.4276 16.8848 15.0836 16.8848 16.7501C17.2632 16.75 17.6316 16.75 18 16.75ZM15.6182 11.7606C11.8647 11.7606 8.12464 11.7606 4.38708 11.7606C4.38708 13.4286 4.38708 15.086 4.38708 16.7417C4.80319 16.7417 5.20726 16.7417 5.62799 16.7417C5.62799 15.4926 5.62799 14.2516 5.62799 13.011C7.71874 13.011 9.7927 13.011 11.8834 13.011C11.8834 14.2629 11.8834 15.5039 11.8834 16.7413C13.1373 16.7413 14.3745 16.7413 15.6182 16.7413C15.6182 15.079 15.6182 13.4254 15.6182 11.7606ZM10.6195 4.28418C10.5734 4.30272 10.5351 4.31563 10.4989 4.33292C8.49538 5.28929 6.49237 6.24669 4.48761 7.20048C4.39754 7.2433 4.37254 7.29405 4.37288 7.38953C4.37642 8.37898 4.37496 9.36838 4.37546 10.3579C4.37546 10.4027 4.38112 10.4474 4.38383 10.4872C4.80477 10.4872 5.21263 10.4872 5.63182 10.4872C5.63182 9.65351 5.63182 8.83275 5.63182 7.99503C7.30117 7.99503 8.95894 7.99503 10.6195 7.99503C10.6195 6.75079 10.6195 5.52367 10.6195 4.28418ZM8.1141 16.7429C8.1141 15.9064 8.1141 15.0825 8.1141 14.2625C7.69541 14.2625 7.2878 14.2625 6.88323 14.2625C6.88323 15.0954 6.88323 15.9157 6.88323 16.7429C7.29526 16.7429 7.69912 16.7429 8.1141 16.7429ZM10.614 16.743C10.614 15.9063 10.614 15.0824 10.614 14.2626C10.1953 14.2626 9.78766 14.2626 9.3833 14.2626C9.3833 15.0955 9.3833 15.9158 9.3833 16.743C9.79532 16.743 10.1992 16.743 10.614 16.743ZM6.88115 10.4925C7.30213 10.4925 7.70586 10.4925 8.11618 10.4925C8.11618 10.0776 8.11618 9.67017 8.11618 9.26027C7.69982 9.26027 7.29238 9.26027 6.88115 9.26027C6.88115 9.67426 6.88115 10.0779 6.88115 10.4925ZM10.6141 10.4929C10.6141 10.0734 10.6141 9.66596 10.6141 9.26223C10.1956 9.26223 9.78816 9.26223 9.38317 9.26223C9.38317 9.67834 9.38317 10.0821 9.38317 10.4929C9.79499 10.4929 10.1987 10.4929 10.6141 10.4929ZM13.1179 9.26102C12.6981 9.26102 12.2907 9.26102 11.8874 9.26102C11.8874 9.67967 11.8874 10.0871 11.8874 10.4917C12.3036 10.4917 12.7074 10.4917 13.1179 10.4917C13.1179 10.0797 13.1179 9.67601 13.1179 9.26102Z" fill="currentColor"/><path fill-rule="evenodd" clip-rule="evenodd" d="M13.1318 15.4889C13.1318 14.6575 13.1318 13.8372 13.1318 13.0085C13.5424 13.0085 13.9463 13.0085 14.3626 13.0085C14.3626 13.8297 14.3626 14.6536 14.3626 15.4889C13.9595 15.4889 13.5519 15.4889 13.1318 15.4889Z" fill="currentColor"/></svg>