<svg width="20" height="20" viewBox="0 0 20 20" fill="none" xmlns="http://www.w3.org/2000/svg"><path d="M10.2031 3.3335C10.6482 3.33595 11.7618 3.34671 12.9449 3.3941L13.3644 3.4124C14.5557 3.4688 15.7459 3.56515 16.3363 3.72975C17.1237 3.95095 17.7426 4.59641 17.9518 5.4146C18.2848 6.71384 18.3265 9.24966 18.3317 9.86333L18.3324 9.9905V9.99941C18.3324 9.99941 18.3324 10.0025 18.3324 10.0084L18.3317 10.1356C18.3265 10.7492 18.2848 13.2851 17.9518 14.5843C17.7397 15.4055 17.1208 16.051 16.3363 16.2692C15.7459 16.4337 14.5557 16.5301 13.3644 16.5865L12.9449 16.6047C11.7618 16.6522 10.6482 16.6629 10.2031 16.6654L10.0078 16.6661H9.99909C9.99909 16.6661 9.99617 16.6661 9.99042 16.6661L9.79525 16.6654C8.85325 16.6602 4.9146 16.6177 3.66193 16.2692C2.8745 16.0479 2.2556 15.4025 2.0464 14.5843C1.71334 13.2851 1.6717 10.7492 1.6665 10.1356V9.86333C1.6717 9.24966 1.71334 6.71384 2.0464 5.4146C2.2585 4.59338 2.8774 3.94793 3.66193 3.72975C4.9146 3.38119 8.85325 3.33868 9.79525 3.3335H10.2031ZM8.33243 7.08278V12.9161L13.3324 9.99941L8.33243 7.08278Z" fill="currentColor"/></svg>